<?xml version="1.0" encoding="UTF-8"?>
<!-- Generator: visioncortex VTracer 0.6.12 -->
<svg version="1.1" xmlns="http://www.w3.org/2000/svg" width="600" height="338">
<path d="M0 0 C0.71542969 0.27972656 1.43085937 0.55945313 2.16796875 0.84765625 C7.31359149 2.97658224 11.66551112 5.49551963 16 9 C16 9.66 16 10.32 16 11 C16.66 11 17.32 11 18 11 C20.04169485 13.90548882 21 15.40142046 21 19 C21.66 19 22.32 19 23 19 C24.14826184 23.10671798 24.14696826 27.07628643 24.125 31.3125 C24.12886719 32.04662109 24.13273437 32.78074219 24.13671875 33.53710938 C24.11480556 45.88519444 24.11480556 45.88519444 22 48 C21.57965425 51.49069735 21.22741809 54.98465552 20.890625 58.484375 C19.53958903 63.81741174 16.44870928 66.03419381 12 69 C12.33 69.33 12.66 69.66 13 70 C13.67441154 73.90134269 13.75192891 77.51279006 11.94140625 81.09375 C10.4033751 83.19447547 8.77276658 85.09287637 7 87 C6.31550781 87.75152344 5.63101562 88.50304687 4.92578125 89.27734375 C1.0388693 93.36542675 1.0388693 93.36542675 -1 95 C-1.99 95 -2.98 95 -4 95 C-4 95.66 -4 96.32 -4 97 C-5.87237371 97.96345444 -7.7480299 98.92053102 -9.625 99.875 C-10.66914063 100.40867187 -11.71328125 100.94234375 -12.7890625 101.4921875 C-24.1108636 106.80875103 -38.56575049 109.60794763 -50.75 105.8125 C-52.18216375 105.24604717 -53.59897362 104.639599 -55 104 C-55.8559375 103.61328125 -56.711875 103.2265625 -57.59375 102.828125 C-62.11833945 100.6722912 -66.36205727 98.51667798 -70 95 C-70 94.34 -70 93.68 -70 93 C-70.50789063 93.44730469 -71.01578125 93.89460938 -71.5390625 94.35546875 C-73.68780709 96.24266203 -75.84296367 98.12229212 -78 100 C-78.29648437 100.26039063 -78.29648437 100.26039063 -79.796875 101.578125 C-83.76939655 105 -83.76939655 105 -86 105 C-86.33 105.66 -86.66 106.32 -87 107 C-88.70703125 108 -88.70703125 108 -90.8125 109 C-91.15603516 109.165 -91.15603516 109.165 -92.89453125 110 C-93.58933594 110.33 -94.28414063 110.66 -95 111 C-95.33966797 111.17466797 -95.33966797 111.17466797 -97.05859375 112.05859375 C-108.72766681 117.71703763 -124.77077653 117.08949892 -136.75390625 113.078125 C-140.9794773 111.47892781 -144.4547351 109.83459676 -148 107 C-148.86625 107.94875 -149.7325 108.8975 -150.625 109.875 C-156.00277612 114.44449313 -162.18840572 114.55813011 -169 115 C-169.7002832 115.04914551 -170.40056641 115.09829102 -171.12207031 115.14892578 C-183.82183174 115.94731096 -183.82183174 115.94731096 -187.890625 112.67578125 C-190.13254255 109.83186732 -190.98292208 107.44241757 -192 104 C-192.66 103.67 -193.32 103.34 -194 103 C-193.938125 103.763125 -193.87625 104.52625 -193.8125 105.3125 C-194.31825983 115.25910994 -197.92075267 122.28140508 -204 130 C-204.721875 131.03125 -205.44375 132.0625 -206.1875 133.125 C-211.96653214 139.84168967 -220.65199136 144.4092387 -229 147 C-230.010625 147.37125 -231.02125 147.7425 -232.0625 148.125 C-243.99738522 151.68007219 -257.56334312 151.30607597 -268.57421875 145.44140625 C-275.47138627 141.34308932 -279.90443703 136.48926524 -283 129 C-283 128.01 -283 127.02 -283 126 C-284.32 126 -285.64 126 -287 126 C-287 126.66 -287 127.32 -287 128 C-300.07553564 135.33207606 -309.16022405 139.19279254 -324.1875 139.3125 C-325.38181641 139.34150391 -326.57613281 139.37050781 -327.80664062 139.40039062 C-335.19778342 139.45327167 -340.5577387 138.64208101 -347 135 C-348.33091982 134.32852799 -349.66359849 133.66049468 -351 133 C-351 132.34 -351 131.68 -351 131 C-351.66 131 -352.32 131 -353 131 C-353 130.34 -353 129.68 -353 129 C-353.99 128.67 -354.98 128.34 -356 128 C-356 127.34 -356 126.68 -356 126 C-357.78515625 125.28515625 -357.78515625 125.28515625 -360 125 C-361.68359375 126.37109375 -361.68359375 126.37109375 -363.4375 128.4375 C-374.17059294 139.76467558 -389.79666521 146.23783806 -405.30078125 147.1328125 C-407.53627544 147.12413097 -409.76577005 147.07704241 -412 147 C-412.39767578 146.99162109 -412.39767578 146.99162109 -414.41015625 146.94921875 C-421.37048789 146.56314647 -426.84660345 144.17028606 -433 141 C-433 140.34 -433 139.68 -433 139 C-433.28875 138.87625 -433.28875 138.87625 -434.75 138.25 C-437.32939979 136.81700012 -439.06121592 135.21575324 -441 133 C-441 132.34 -441 131.68 -441 131 C-441.66 131 -442.32 131 -443 131 C-443 129.68 -443 128.36 -443 127 C-443.66 127 -444.32 127 -445 127 C-449.05536755 114.83389735 -445.89725937 99.1158119 -443 87 C-442.44759971 84.21398113 -441.94268672 81.41991227 -441.4375 78.625 C-440.56120489 73.8823677 -439.61572391 69.16813694 -438.53125 64.46875 C-437.7831935 60.99248745 -437.14558758 57.49640006 -436.5 54 C-435.6017662 49.13530801 -434.66464337 44.29366361 -433.51953125 39.48046875 C-433.07760657 37.37052762 -432.72271133 35.24266096 -432.38671875 33.11328125 C-432.27134766 32.406875 -432.15597656 31.70046875 -432.03710938 30.97265625 C-431.81013126 29.57021045 -431.59828108 28.16520136 -431.40429688 26.7578125 C-430.50455687 21.33807685 -429.02002709 18.59259487 -425 15 C-422.30529319 14.07744628 -419.70747624 13.85001913 -416.875 13.6875 C-409.11101083 13.03700361 -409.11101083 13.03700361 -406 12 C-403.26134713 11.92948886 -400.54972412 11.90642235 -397.8125 11.9375 C-397.06291016 11.94201172 -396.31332031 11.94652344 -395.54101562 11.95117188 C-393.69397617 11.96293646 -391.84697787 11.98087135 -390 12 C-390 12.66 -390 13.32 -390 14 C-389.01 14.33 -388.02 14.66 -387 15 C-383.78861066 19.817084 -384.65851889 24.16231841 -385.67578125 29.63671875 C-386.41477689 33.1005419 -387.18664945 36.55294292 -388 40 C-387.28457031 39.90460938 -386.56914062 39.80921875 -385.83203125 39.7109375 C-376.9268482 38.72019268 -367.02845506 38.42609651 -359 43 C-359 43.66 -359 44.32 -359 45 C-358.71382812 45.04576172 -358.71382812 45.04576172 -357.265625 45.27734375 C-354.44544295 46.17688458 -352.92415738 47.56952241 -350.75 49.5625 C-350.39679688 49.88283203 -350.39679688 49.88283203 -348.609375 51.50390625 C-348.34382813 51.75076172 -348.34382813 51.75076172 -347 53 C-347 52.34 -347 51.68 -347 51 C-340.38937968 44.17840243 -330.96383806 35.4445003 -321.0625 34.8125 C-320.381875 34.874375 -319.70125 34.93625 -319 35 C-319 34.34 -319 33.68 -319 33 C-313.06864515 31.72752941 -307.16194589 31.77941265 -301.125 31.75 C-300.07441406 31.729375 -299.02382813 31.70875 -297.94140625 31.6875 C-286.43123162 31.6298771 -277.61132002 35.496557 -269.32421875 43.6484375 C-267.08824195 46.2471834 -265.47414903 48.92666252 -264 52 C-263.731875 51.96390625 -263.731875 51.96390625 -262.375 51.78125 C-256.77502599 51.11809518 -251.19683612 50.83668209 -245.5625 50.75 C-244.86447266 50.72873047 -244.16644531 50.70746094 -243.44726562 50.68554688 C-238.49395628 50.65178527 -238.49395628 50.65178527 -236.02734375 52.390625 C-235 54 -235 54 -235 56 C-234.34 56 -233.68 56 -233 56 C-233 58.31 -233 60.62 -233 63 C-232.01 63 -231.02 63 -230 63 C-229.93683594 62.36835938 -229.87367188 61.73671875 -229.80859375 61.0859375 C-228.97283337 54.98048797 -227.28332951 49.856245 -224.5625 44.375 C-224.26206787 43.75931152 -223.96163574 43.14362305 -223.65209961 42.50927734 C-221.38526943 38.12842314 -221.38526943 38.12842314 -218 37 C-217.690625 36.21625 -217.38125 35.4325 -217.0625 34.625 C-215.84834242 31.62531658 -214.7487545 30.63207298 -212 29 C-211.34 29 -210.68 29 -210 29 C-210 28.34 -210 27.68 -210 27 C-209.34 27 -208.68 27 -208 27 C-208 26.34 -208 25.68 -208 25 C-206.10545176 24.03912864 -204.20930419 23.08141031 -202.3125 22.125 C-201.25675781 21.59132813 -200.20101562 21.05765625 -199.11328125 20.5078125 C-193.961565 18.01275293 -189.68681598 16.76553292 -184 16 C-183.67 15.67 -183.34 15.34 -183 15 C-174.58567941 14.44190731 -166.76494865 14.43025936 -159 18 C-158.29230469 18.30164063 -157.58460938 18.60328125 -156.85546875 18.9140625 C-152.3515226 20.96966686 -149.47517742 23.42828988 -146 27 C-144.14453125 27.921875 -144.14453125 27.921875 -142 28 C-139.74609375 26.12890625 -139.74609375 26.12890625 -137.4375 23.5625 C-135.12109375 21.00390625 -135.12109375 21.00390625 -133 19 C-132.01 19 -131.02 19 -130 19 C-130 18.34 -130 17.68 -130 17 C-124.18454957 13.52172823 -118.53507632 10.81471622 -112 9 C-110.77925781 8.65195313 -109.55851562 8.30390625 -108.30078125 7.9453125 C-96.51655345 5.05235926 -83.49596012 5.71869673 -73 12 C-70.81660579 13.50852691 -68.73958454 15.04614298 -66.71875 16.765625 C-64.67797669 18.23127128 -63.53373449 18.93281765 -61 19 C-58.78125 17.1640625 -58.78125 17.1640625 -56.5 14.625 C-51.84101558 9.47139737 -51.84101558 9.47139737 -48 9 C-48 8.34 -48 7.68 -48 7 C-42.3282219 3.89769131 -37.10793922 1.48294187 -30.71484375 0.359375 C-29 0 -29 0 -28 -1 C-19.07017864 -2.86903238 -8.5509109 -3.35329839 0 0 Z " fill="#535353" transform="translate(511,95)"/>
<path d="M0 0 C0 1.98 0 3.96 0 6 C-0.66 6 -1.32 6 -2 6 C-1.95875 6.886875 -1.9175 7.77375 -1.875 8.6875 C-1.86308826 14.52425194 -3.03539672 20.26166661 -4 26 C-4.09345703 26.56138672 -4.09345703 26.56138672 -4.56640625 29.40234375 C-4.70949219 30.25957031 -4.85257813 31.11679688 -5 32 C-4.33613281 31.72285156 -3.67226562 31.44570312 -2.98828125 31.16015625 C-2.10527344 30.79792969 -1.22226563 30.43570313 -0.3125 30.0625 C0.55761719 29.70285156 1.42773438 29.34320313 2.32421875 28.97265625 C9.98848155 26.18666875 19.62309473 25.55681224 27.546875 27.68359375 C32.23074676 29.87121603 35.6252668 33.1314034 39 37 C43.62227956 50.86683867 39.58431116 72.96117404 34 86 C33.34 86 32.68 86 32 86 C31.95875 86.66 31.9175 87.32 31.875 88 C30.00878223 94.39846092 25.28914446 99.14035404 20 103 C19.505 103.515625 19.01 104.03125 18.5 104.5625 C13.90135321 108.9695365 8.28873009 111 2 111 C2 111.66 2 112.32 2 113 C-9.15044369 116.07294474 -23.58702729 114.9579008 -34 110 C-38.64867001 106.34965092 -41.20423254 102.89591345 -42 97 C-42.81329371 85.70845707 -41.32499978 73.78529341 -38 63 C-37.34 63 -36.68 63 -36 63 C-35.88527344 61.845 -35.77054687 60.69 -35.65234375 59.5 C-34.93099447 53.0192662 -33.90885361 46.58402223 -32.89819336 40.14355469 C-32.56329856 38.00509917 -32.23363024 35.86588068 -31.90429688 33.7265625 C-30.12785692 22.29827606 -30.12785692 22.29827606 -28.87109375 16.80859375 C-28.02567896 13.11227349 -27.60938115 9.61297784 -27.34375 5.84765625 C-27 4 -27 4 -25 2 C-22.27362087 1.52508235 -19.62153071 1.15992921 -16.875 0.875 C-16.14023438 0.78863281 -15.40546875 0.70226562 -14.6484375 0.61328125 C-9.7385286 0.06869628 -4.93892007 -0.07839556 0 0 Z " fill="#FCFCFC" transform="translate(116,117)"/>
<path d="M0 0 C2.42706776 2.10722162 4.30462283 4.27397988 6 7 C6.37511719 7.59167969 6.75023437 8.18335938 7.13671875 8.79296875 C9.87826784 15.80190648 8.29255066 25.67554627 7 33 C6.67 33.33 6.34 33.66 6 34 C5.57975065 36.36838494 5.21303116 38.7245732 4.87890625 41.10546875 C4.66346204 42.57878344 4.44796554 44.05209048 4.23242188 45.52539062 C3.89731309 47.85107986 3.56399595 50.17701286 3.23217773 52.50317383 C2.910705 54.74630189 2.58256756 56.98838438 2.25390625 59.23046875 C2.15799698 59.9181987 2.06208771 60.60592865 1.96327209 61.3144989 C1.36308657 65.39125496 0.41778083 69.13199343 -1 73 C-8.36487404 73.99862699 -15.57313685 74.10331031 -23 74 C-22 64 -21 54 -20 44 C-19.34 44 -18.68 44 -18 44 C-18.04125 43.071875 -18.0825 42.14375 -18.125 41.1875 C-18.13843434 37.86921721 -17.64328251 34.81515384 -17 31.5625 C-16.10665055 26.89008959 -15.5758949 22.74997714 -16 18 C-17.15625 16.3125 -17.15625 16.3125 -19 15 C-21.70703125 14.53125 -21.70703125 14.53125 -24.8125 14.5 C-25.82957031 14.4690625 -26.84664063 14.438125 -27.89453125 14.40625 C-31.06291711 15.01202943 -33.30920268 15.76567727 -35.70776367 17.97949219 C-38.82880738 22.85947664 -39.01280087 29.2244683 -39.75 34.875 C-39.94428314 36.21908907 -40.14088138 37.56284562 -40.33984375 38.90625 C-40.92802602 42.93306447 -41.46706382 46.96556278 -42 51 C-42.19436537 52.45088605 -42.38902841 53.90173225 -42.58398438 55.35253906 C-43.05999042 58.90116669 -43.53131702 62.45039688 -44 66 C-44.66 66 -45.32 66 -46 66 C-45.938125 67.27875 -45.87625 68.5575 -45.8125 69.875 C-45.8838266 81.26942398 -51.10004368 90.00060239 -58.8125 98.125 C-61 100 -61 100 -63 100 C-63 100.66 -63 101.32 -63 102 C-64.89454824 102.96087136 -66.79069581 103.91858969 -68.6875 104.875 C-69.74324219 105.40867187 -70.79898438 105.94234375 -71.88671875 106.4921875 C-72.91410156 106.98976563 -73.94148438 107.48734375 -75 108 C-75.75152344 108.38800781 -76.50304687 108.77601563 -77.27734375 109.17578125 C-81.45354677 110.44002635 -85.53642625 110.32838058 -89.875 110.3125 C-90.31134766 110.32055664 -90.31134766 110.32055664 -92.51953125 110.36132812 C-100.06686238 110.36700281 -105.46333885 108.80375528 -111.25 103.6875 C-111.89453125 103.13449219 -112.5390625 102.58148438 -113.203125 102.01171875 C-117.26895556 97.45975627 -118.41585466 93.26925391 -118.375 87.25 C-118.38273438 86.12078125 -118.39046875 84.9915625 -118.3984375 83.828125 C-117.98127726 79.8201149 -116.96642575 76.42606662 -115.74853516 72.60595703 C-114.54094073 68.40182691 -114.03605078 64.14483149 -113.5 59.8125 C-110.22351564 35.22351564 -110.22351564 35.22351564 -108 33 C-102.98218859 32.08592735 -98.1550386 31.89243329 -93.0625 31.9375 C-92.72057617 31.93975586 -92.72057617 31.93975586 -90.99023438 31.95117188 C-89.32678396 31.9628044 -87.6633795 31.98073306 -86 32 C-85.4131227 41.0965981 -87.42852313 49.22196602 -89.52587891 58 C-91.87143868 67.89434897 -93.36122774 77.97071374 -95 88 C-93.68 88.66 -92.36 89.32 -91 90 C-91 90.66 -91 91.32 -91 92 C-84.11111584 91.84471778 -78.12390472 90.97320164 -73 86 C-71.33147448 82.41157036 -70.5606292 79.04625831 -70 75.140625 C-69.9175 74.58246094 -69.9175 74.58246094 -69.5 71.7578125 C-69.335 70.60023438 -69.17 69.44265625 -69 68.25 C-67.91806311 60.76096809 -66.78678456 53.35641907 -65 46 C-64.80277344 45.1646875 -64.60554688 44.329375 -64.40234375 43.46875 C-64.32564453 43.14390625 -64.32564453 43.14390625 -63.9375 41.5 C-63.26792635 38.55793395 -62.88508571 35.75769352 -62.6875 32.75 C-61.51456741 21.73212499 -56.5008008 12.11694951 -48 5 C-45.72265625 4.234375 -45.72265625 4.234375 -44 4 C-44 3.34 -44 2.68 -44 2 C-31.60183398 -7.1986393 -13.0065622 -7.69619065 0 0 Z " fill="#F8F8F8" transform="translate(354,125)"/>
<path d="M0 0 C1.02810791 -0.00128906 2.05621582 -0.00257813 3.11547852 -0.00390625 C10.54260672 0.10510672 10.54260672 0.10510672 12.8125 2.375 C13.67875 2.6225 14.545 2.87 15.4375 3.125 C19.80176367 4.74139395 23.50626134 7.07665213 26.8125 10.375 C27.79015597 13.33359036 27.93003646 16.0393126 27.91015625 19.140625 C27.90854492 19.58535156 27.90854492 19.58535156 27.90039062 21.8359375 C27.89620117 22.29613281 27.89620117 22.29613281 27.875 24.625 C27.87048828 25.56085938 27.86597656 26.49671875 27.86132812 27.4609375 C27.84956918 29.76569041 27.83313426 32.07031227 27.8125 34.375 C27.1525 34.375 26.4925 34.375 25.8125 34.375 C25.78671875 35.48617187 25.7609375 36.59734375 25.734375 37.7421875 C25.43836481 46.4024331 24.73401745 53.49928579 20.8125 61.375 C20.4825 62.365 20.1525 63.355 19.8125 64.375 C19.1525 64.375 18.4925 64.375 17.8125 64.375 C17.585625 64.91125 17.35875 65.4475 17.125 66 C15.35679911 69.19960161 13.27579797 71.66537223 10.8125 74.375 C10.1525 74.375 9.4925 74.375 8.8125 74.375 C8.6475 74.973125 8.4825 75.57125 8.3125 76.1875 C6.39448049 78.98461179 4.31363054 79.54311337 1.16796875 80.5859375 C-2.22304918 81.72190039 -5.4932473 83.13248433 -8.79296875 84.5078125 C-17.78099786 87.7628573 -31.55706305 88.40194639 -40.5 84.8125 C-44.51344849 82.56496884 -47.84105521 79.34095179 -50.1875 75.375 C-50.1875 74.385 -50.1875 73.395 -50.1875 72.375 C-50.8475 72.375 -51.5075 72.375 -52.1875 72.375 C-55.12895703 63.5506289 -52.72909863 53.91761558 -50.8984375 45.06640625 C-50.34295125 42.18215074 -50.01265845 39.54230024 -49.875 36.625 C-48.89610628 26.40534961 -41.85821854 17.51495507 -34.4375 10.9375 C-32.1875 9.375 -32.1875 9.375 -30.1875 9.375 C-30.1875 8.715 -30.1875 8.055 -30.1875 7.375 C-28.5375 7.045 -26.8875 6.715 -25.1875 6.375 C-25.1875 5.715 -25.1875 5.055 -25.1875 4.375 C-16.74445771 0.74497798 -9.10104154 -0.01130476 0 0 Z " fill="#FAFAFA" transform="translate(210.1875,137.625)"/>
<path d="M0 0 C4.26897285 4.26897285 7.46434369 8.13437985 8.25 14.25 C8.19887805 24.14209709 6.39017428 33.63940606 4.25 43.25 C-7.86885287 44.75684149 -19.99039602 45.7576241 -32.17675781 46.55224609 C-33.33014648 46.62910645 -34.48353516 46.7059668 -35.671875 46.78515625 C-36.69893555 46.850979 -37.72599609 46.91680176 -38.78417969 46.98461914 C-41.81010965 47.2553786 -44.76087117 47.71272554 -47.75 48.25 C-47.85807131 50.18627769 -47.9356225 52.12427756 -48 54.0625 C-48.02320313 54.60197266 -48.02320313 54.60197266 -48.140625 57.33203125 C-47.75 60.25 -47.75 60.25 -46.015625 62.1171875 C-43.52798449 63.36100776 -42.01381875 63.62402336 -39.25 63.5625 C-38.4971875 63.55863281 -37.744375 63.55476563 -36.96875 63.55078125 C-34.53093888 63.22030333 -32.92186669 62.36708717 -30.75 61.25 C-29.76 61.25 -28.77 61.25 -27.75 61.25 C-27.62625 60.651875 -27.5025 60.05375 -27.375 59.4375 C-26.75 57.25 -26.75 57.25 -24.75 54.25 C-20.06261335 55.15723613 -15.40806256 56.2047267 -10.75 57.25 C-10.75 57.91 -10.75 58.57 -10.75 59.25 C-8.77 59.58 -6.79 59.91 -4.75 60.25 C-5.23413572 64.44584287 -7.68102226 67.50664324 -10.75 70.25 C-12.73014432 70.97351427 -14.72821315 71.65265389 -16.75 72.25 C-16.915 72.745 -16.915 72.745 -17.75 75.25 C-18.575 75.415 -18.575 75.415 -22.75 76.25 C-22.75 76.91 -22.75 77.57 -22.75 78.25 C-33.17983927 83.13205243 -45.85774739 85.88075087 -57.125 82.125 C-63.80554861 79.07144452 -69.21716511 74.7504162 -72.75 68.25 C-75.82896421 58.80646547 -73.56983173 48.04624244 -71.46484375 38.65625 C-70.87745376 35.85732065 -70.54015775 33.28021529 -70.375 30.4375 C-69.2684024 19.49447931 -61.18279177 10.99520406 -53.25 4.06640625 C-50.87709434 2.34234198 -49.03309681 1.41016857 -46.25 0.5625 C-45.47785156 0.3253125 -44.70570313 0.088125 -43.91015625 -0.15625 C-41.53941138 -0.80788331 -39.17799453 -1.35838798 -36.75 -1.75 C-36.75 -2.41 -36.75 -3.07 -36.75 -3.75 C-24.535116 -5.75881381 -10.79320289 -6.86840184 0 0 Z " fill="#F9F9F9" transform="translate(517.75,108.75)"/>
<path d="M0 0 C4.88463831 3.64761952 8.65992443 7.18691145 9.828125 13.38671875 C9.86164063 13.88751953 9.86164063 13.88751953 10.03125 16.421875 C10.06992187 16.92138672 10.06992187 16.92138672 10.265625 19.44921875 C10.28125 22.484375 10.28125 22.484375 9.28125 28.484375 C1.36125 28.484375 -6.55875 28.484375 -14.71875 28.484375 C-14.88375 27.164375 -14.88375 27.164375 -15.71875 20.484375 C-16.78125 17.984375 -16.78125 17.984375 -17.71875 16.484375 C-19.80093362 16.37605331 -21.88474129 16.29863959 -23.96875 16.234375 C-25.12890625 16.18796875 -26.2890625 16.1415625 -27.484375 16.09375 C-31.35494044 16.56120959 -32.19836178 17.65172629 -34.71875 20.484375 C-35.70875 20.484375 -36.69875 20.484375 -37.71875 20.484375 C-42.26832665 33.04987242 -46.34042871 47.98628457 -44.71875 61.484375 C-43.28125 64.109375 -43.28125 64.109375 -40.71875 65.484375 C-35.82442235 66.17834683 -31.05480005 66.01373753 -26.71875 63.484375 C-23.75107971 60.85393997 -21.97925352 59.26588555 -20.71875 55.484375 C-17.82697183 54.36775175 -15.02588697 54.36702156 -11.953125 54.38671875 C-11.06367188 54.38994141 -10.17421875 54.39316406 -9.2578125 54.39648438 C-8.33742188 54.40486328 -7.41703125 54.41324219 -6.46875 54.421875 C-6.00082031 54.42413086 -6.00082031 54.42413086 -3.6328125 54.43554688 C-1.32805959 54.44730582 0.97656227 54.46374074 3.28125 54.484375 C1.91757402 61.95979876 -2.33610899 67.24064085 -7.71875 72.484375 C-9.05155507 73.15209714 -10.38490306 73.81873654 -11.71875 74.484375 C-12.3065625 75.13019531 -12.894375 75.77601563 -13.5 76.44140625 C-16.39876748 79.11051785 -19.52506254 80.05659655 -23.21875 81.171875 C-23.88261719 81.38392578 -24.54648437 81.59597656 -25.23046875 81.81445312 C-27.05364253 82.39124563 -28.8859356 82.93899107 -30.71875 83.484375 C-31.36457031 83.69191406 -32.01039063 83.89945312 -32.67578125 84.11328125 C-43.08800263 86.00460253 -54.4753105 85.3691818 -63.53125 79.734375 C-69.21832648 73.88481062 -70.95453684 67.71116627 -70.8828125 59.76171875 C-70.66761597 55.46291183 -70.2451529 51.2002311 -69.78125 46.921875 C-69.69447998 46.11153809 -69.60770996 45.30120117 -69.51831055 44.46630859 C-68.84462071 38.61024571 -68.84462071 38.61024571 -67.71875 37.484375 C-67.615625 36.494375 -67.5125 35.504375 -67.40625 34.484375 C-66.05014771 24.41634282 -59.37178046 13.96001616 -51.71875 7.484375 C-50.07511866 6.76278076 -48.40824614 6.09086079 -46.71875 5.484375 C-46.0175 4.948125 -45.31625 4.411875 -44.59375 3.859375 C-42.71875 2.484375 -42.71875 2.484375 -39.71875 2.484375 C-39.71875 1.824375 -39.71875 1.164375 -39.71875 0.484375 C-28.7926432 -5.33310468 -10.87427689 -6.06209689 0 0 Z " fill="#FAFAFA" transform="translate(433.71875,115.515625)"/>
<path d="M0 0 C3.49267482 -0.20352053 5.85584417 0.1148446 9.015625 1.62890625 C11.38045895 4.65884974 11.59408891 6.71886364 11.3828125 10.515625 C10.81191996 14.67585254 9.82698888 18.7054415 8.796875 22.7734375 C8.00791086 26.22515559 7.55734351 29.61484725 7.140625 33.12890625 C6.29506036 38.7887341 5.40216246 41.47238536 1.015625 45.19140625 C-4.1361927 48.93192423 -8.48698867 49.77945764 -14.7734375 48.79296875 C-17.94241066 47.9307393 -19.32926839 47.05022675 -20.984375 44.19140625 C-21.78690363 38.68835279 -20.20666157 33.92203097 -18.78515625 28.61328125 C-17.36503301 22.54485217 -16.70271624 16.377592 -15.984375 10.19140625 C-15.324375 10.19140625 -14.664375 10.19140625 -13.984375 10.19140625 C-13.9225 9.44890625 -13.860625 8.70640625 -13.796875 7.94140625 C-12.70689578 4.25224582 -11.22056935 3.20503829 -7.984375 1.19140625 C-5.29174771 0.47337231 -2.76135967 0.26635162 0 0 Z " fill="#4F4F4F" transform="translate(119.984375,163.80859375)"/>
<path d="M0 0 C0.52464844 -0.01417969 0.52464844 -0.01417969 3.1796875 -0.0859375 C6.81681235 0.48326771 7.96865471 1.43125416 10.125 4.375 C10.55078125 6.3828125 10.55078125 6.3828125 10.4375 8.5 C10.40011719 9.28503906 10.36273438 10.07007813 10.32421875 10.87890625 C10.25847656 11.70261719 10.19273437 12.52632812 10.125 13.375 C10.06957031 14.20902344 10.01414063 15.04304687 9.95703125 15.90234375 C9.58114978 20.50511878 8.89062286 24.84991644 7.65234375 29.296875 C7.03686951 31.7222994 6.65779055 34.15660409 6.25 36.625 C5.46021421 40.71809621 4.49222479 42.74435563 1.125 45.375 C0.465 46.365 -0.195 47.355 -0.875 48.375 C-4.14742 50.55661333 -7.05803256 50.70192729 -10.9375 50.75 C-11.98035156 50.77835938 -13.02320313 50.80671875 -14.09765625 50.8359375 C-16.875 50.375 -16.875 50.375 -18.52880859 48.68896484 C-22.75531668 41.42403129 -19.41039023 29.91035924 -17.8125 22.125 C-17.63267578 21.10148437 -17.45285156 20.07796875 -17.26757812 19.0234375 C-15.79722391 11.76035447 -13.24714924 7.44577886 -7.875 2.375 C-5.20028957 -0.29971043 -3.72694382 0.04556166 0 0 Z " fill="#4F4F4F" transform="translate(202.875,155.625)"/>
<path d="M0 0 C0.98484375 0.00902344 1.9696875 0.01804687 2.984375 0.02734375 C3.35820312 0.03314453 3.35820312 0.03314453 5.25 0.0625 C5.25 0.7225 5.25 1.3825 5.25 2.0625 C6.24 2.0625 7.23 2.0625 8.25 2.0625 C8.27687279 3.87492052 8.29633715 5.68745233 8.3125 7.5 C8.32410156 8.50933594 8.33570313 9.51867187 8.34765625 10.55859375 C8.25 13.0625 8.25 13.0625 7.25 14.0625 C5.90950396 14.28848472 4.55909707 14.45652959 3.20703125 14.59765625 C2.38009766 14.68466797 1.55316406 14.77167969 0.70117188 14.86132812 C-0.16958984 14.94833984 -1.04035156 15.03535156 -1.9375 15.125 C-2.78892578 15.21587891 -3.64035156 15.30675781 -4.51757812 15.40039062 C-8.94908139 15.85622197 -13.2881281 16.17203859 -17.75 16.0625 C-17.38106796 8.80683657 -17.38106796 8.80683657 -14.3125 5.1875 C-13.466875 4.48625 -12.62125 3.785 -11.75 3.0625 C-11.09 2.4025 -10.43 1.7425 -9.75 1.0625 C-6.50382456 -0.07940685 -3.41670275 -0.04067503 0 0 Z " fill="#4C4C4C" transform="translate(490.75,122.9375)"/>
<path d="M0 0 C3.05215461 1.60639716 5.04346535 3.729422 7.375 6.25 C7.705 6.415 7.705 6.415 9.375 7.25 C9.375 7.91 9.375 8.57 9.375 9.25 C9.8596875 9.3015625 9.8596875 9.3015625 12.3125 9.5625 C17.5707807 10.31368296 23.54832065 11.42332065 27.375 15.25 C21.53425755 17.19691415 15.4280795 13.37288069 10.125 10.8125 C6.53914446 8.95813234 3.30002256 7.0775218 0.375 4.25 C0.375 3.59 0.375 2.93 0.375 2.25 C0.12105469 2.47365234 0.12105469 2.47365234 -1.1640625 3.60546875 C-3.31280709 5.49266203 -5.46796367 7.37229212 -7.625 9.25 C-8.21796875 9.77078125 -8.8109375 10.2915625 -9.421875 10.828125 C-13.39439655 14.25 -13.39439655 14.25 -15.625 14.25 C-15.955 14.91 -16.285 15.57 -16.625 16.25 C-18.33203125 17.25 -18.33203125 17.25 -20.4375 18.25 C-20.78103516 18.415 -20.78103516 18.415 -22.51953125 19.25 C-23.21433594 19.58 -23.90914063 19.91 -24.625 20.25 C-25.30433594 20.59933594 -25.98367188 20.94867188 -26.68359375 21.30859375 C-36.37346137 26.00730219 -50.20629034 26.20350806 -60.625 24.25 C-56.86062305 21.81422668 -53.45805537 22.01523596 -49.0625 22.0625 C-48.72637695 22.06282227 -48.72637695 22.06282227 -47.02539062 22.06445312 C-43.96086829 22.0918421 -41.5522839 22.2742387 -38.625 23.25 C-38.625 22.59 -38.625 21.93 -38.625 21.25 C-31.875 20.125 -31.875 20.125 -29.625 21.25 C-29.295 20.26 -28.965 19.27 -28.625 18.25 C-27.30351173 17.87243192 -25.96664079 17.5481424 -24.625 17.25 C-21.89778633 15.78150033 -19.54522406 14.18617925 -17.125 12.25 C-14.625 10.25 -14.625 10.25 -12.25 8.9375 C-9.71299472 7.30656804 -8.145336 5.70837593 -6.125 3.5 C-2.97663551 0.2834891 -2.97663551 0.2834891 0 0 Z " fill="#8A8A8A" transform="translate(440.625,185.75)"/>
<path d="M0 0 C2.4375 0.8125 2.4375 0.8125 5 2 C5.33 2.99 5.66 3.98 6 5 C6.66 5 7.32 5 8 5 C10.04169485 7.90548882 11 9.40142046 11 13 C11.66 13 12.32 13 13 13 C14.14826184 17.10671798 14.14696826 21.07628643 14.125 25.3125 C14.12886719 26.04662109 14.13273438 26.78074219 14.13671875 27.53710938 C14.11480556 39.88519444 14.11480556 39.88519444 12 42 C11.4989773 45.52082315 11.09807548 49.04870145 10.6953125 52.58203125 C10.01097029 55.94607301 9.4076362 57.59841313 7 60 C6.34 60 5.68 60 5 60 C5.309375 59.360625 5.61875 58.72125 5.9375 58.0625 C7.12814507 54.63064067 7.46161407 51.49357354 7.75390625 47.890625 C8 46 8 46 9 45 C9.165 43.845 9.33 42.69 9.5 41.5 C10 38 10 38 11 37 C12.12034925 28.28617248 12.99818659 20.10205212 9 12 C8.69835937 11.30390625 8.39671875 10.6078125 8.0859375 9.890625 C7 8 7 8 3.9375 6 C1 4 1 4 0.125 1.75 C0.08375 1.1725 0.0425 0.595 0 0 Z " fill="#8E8E8E" transform="translate(521,101)"/>
<path d="M0 0 C0.74958984 0.00451172 1.49917969 0.00902344 2.27148438 0.01367188 C4.11852383 0.02543646 5.96552213 0.04337135 7.8125 0.0625 C7.8125 0.7225 7.8125 1.3825 7.8125 2.0625 C8.8025 2.3925 9.7925 2.7225 10.8125 3.0625 C14.02388934 7.879584 13.15398111 12.22481841 12.13671875 17.69921875 C11.39772311 21.1630419 10.62585055 24.61544292 9.8125 28.0625 C10.22822266 28.02060547 10.22822266 28.02060547 12.33203125 27.80859375 C13.41871094 27.70675781 14.50539063 27.60492188 15.625 27.5 C16.16447266 27.44779297 16.16447266 27.44779297 18.89453125 27.18359375 C21.8125 27.0625 21.8125 27.0625 24.8125 28.0625 C24.8125 28.7225 24.8125 29.3825 24.8125 30.0625 C19.5325 30.0625 14.2525 30.0625 8.8125 30.0625 C8.5928438 21.82539258 9.36884017 14.17019671 10.8125 6.0625 C10.1525 6.0625 9.4925 6.0625 8.8125 6.0625 C8.1525 4.4125 7.4925 2.7625 6.8125 1.0625 C5.9875 1.2275 5.1625 1.3925 4.3125 1.5625 C1.65506013 1.94213427 -0.59927883 2.10273865 -3.25 2.0625 C-6.46496003 2.0625 -9.09327563 2.28894391 -12.1875 3.0625 C-9.97894074 -1.35461851 -4.30476406 -0.04887505 0 0 Z " fill="#909090" transform="translate(113.1875,106.9375)"/>
<path d="M0 0 C0.33 0 0.66 0 1 0 C0.44266146 12.26144786 0.44266146 12.26144786 -1.4375 17.75 C-3.28626305 23.18806887 -3.79213789 28.68902263 -4.35327148 34.37597656 C-4.90950218 39.90950218 -4.90950218 39.90950218 -6 41 C-6.35314463 43.16041421 -6.65684448 45.32897877 -6.9375 47.5 C-7.69811849 53.09311945 -8.67614753 58.51546836 -10 64 C-10.99 64 -11.98 64 -13 64 C-11.61891088 55.09638288 -10.24477596 46.35540895 -7.68359375 37.703125 C-6.86963309 34.48449199 -6.43101018 31.29135049 -6 28 C-5.30595918 22.70215504 -4.22975389 17.74301708 -2.73046875 12.62109375 C-1.57203253 8.46435202 -0.78200423 4.24122292 0 0 Z " fill="#9A9A9A" transform="translate(79,129)"/>
<path d="M0 0 C1.05058594 -0.020625 2.10117188 -0.04125 3.18359375 -0.0625 C11.49292708 -0.10409866 17.58858423 1.28843958 24.625 5.9375 C25.2953125 6.37449219 25.965625 6.81148437 26.65625 7.26171875 C26.89859375 7.42478516 26.89859375 7.42478516 28.125 8.25 C27.465 8.91 26.805 9.57 26.125 10.25 C25.61710937 9.90066406 25.10921875 9.55132812 24.5859375 9.19140625 C20.39742302 6.42259424 17.22369625 4.70321744 12.125 4.25 C10.45695323 3.92364302 8.78975686 3.59274406 7.125 3.25 C7.125 2.59 7.125 1.93 7.125 1.25 C6.795 1.415 6.795 1.415 5.125 2.25 C3.31458207 2.34632897 1.50047247 2.37981533 -0.3125 2.375 C-1.28058594 2.37757813 -2.24867188 2.38015625 -3.24609375 2.3828125 C-5.875 2.25 -5.875 2.25 -8.875 1.25 C-8.875 1.91 -8.875 2.57 -8.875 3.25 C-11.515 2.92 -14.155 2.59 -16.875 2.25 C-16.875 2.91 -16.875 3.57 -16.875 4.25 C-19.185 4.91 -21.495 5.57 -23.875 6.25 C-23.545 5.26 -23.215 4.27 -22.875 3.25 C-21.225 3.25 -19.575 3.25 -17.875 3.25 C-17.875 2.59 -17.875 1.93 -17.875 1.25 C-11.94364515 -0.02247059 -6.03694589 0.02941265 0 0 Z " fill="#898989" transform="translate(209.875,126.75)"/>
<path d="M0 0 C3.31893403 1.14088357 6.08202476 2.65034199 9 4.5625 C11.98843823 6.4868731 14.39463121 7.66199668 18 8 C18 8.66 18 9.32 18 10 C12.50767625 9.65672977 9.28776672 8.2291633 4.796875 5.05859375 C3 4 3 4 0 4 C-0.763125 4.78375 -1.52625 5.5675 -2.3125 6.375 C-10.4327104 13.41783605 -25.7780968 11.23895358 -36 11 C-34 9 -34 9 -31.86328125 8.875 C-31.02152344 8.91625 -30.17976563 8.9575 -29.3125 9 C-25.96675025 9.07658369 -23.7669856 8.93342446 -20.5 8 C-17.22052833 7.06300809 -15.21423119 6.97724641 -11.875 7.125 C-8.25132571 7.20760656 -7.21733199 7.13130475 -4 5.1875 C-2 3 -2 3 0 0 Z " fill="#8F8F8F" transform="translate(362,199)"/>
<path d="M0 0 C0.5671875 0.185625 0.5671875 0.185625 3.4375 1.125 C3.8603125 1.269375 3.8603125 1.269375 6 2 C5.01 2.66 4.02 3.32 3 4 C0.3125 3.125 0.3125 3.125 -2 2 C-2 1.34 -2 0.68 -2 0 C-2.6084375 0.1753125 -2.6084375 0.1753125 -5.6875 1.0625 C-9.82481565 2.01375683 -13.28943814 1.90259144 -17.5 1.4375 C-22.68507172 0.91112749 -26.2482769 1.2883951 -31.0546875 3.23046875 C-33.64590753 4.2555096 -36.24616017 4.64694361 -39 5 C-38.67 4.01 -38.34 3.02 -38 2 C-35.96875 1.3046875 -35.96875 1.3046875 -33.5 0.875 C-29.07722008 0.07722008 -29.07722008 0.07722008 -28 -1 C-18.9521976 -2.89372608 -8.71655015 -3.26870631 0 0 Z " fill="#858585" transform="translate(511,95)"/>
<path d="M0 0 C3.88343425 2.70151948 3.88343425 2.70151948 5.49609375 4.4375 C5.49609375 5.4275 5.49609375 6.4175 5.49609375 7.4375 C0.62109375 4.6875 0.62109375 4.6875 -0.50390625 2.4375 C-2.15382207 1.73039322 -3.82468245 1.07187344 -5.50390625 0.4375 C-11.134608 -2.32039474 -11.134608 -2.32039474 -13.1484375 -3.640625 C-16.76329906 -5.05539669 -20.28395781 -4.85120753 -24.12890625 -4.8125 C-24.90492188 -4.82023437 -25.6809375 -4.82796875 -26.48046875 -4.8359375 C-32.25050359 -4.81590266 -32.25050359 -4.81590266 -34.50390625 -2.5625 C-36.66796875 -2.1484375 -36.66796875 -2.1484375 -39.12890625 -1.9375 C-39.94617188 -1.86273438 -40.7634375 -1.78796875 -41.60546875 -1.7109375 C-42.23195313 -1.66195312 -42.8584375 -1.61296875 -43.50390625 -1.5625 C-43.83390625 -2.2225 -44.16390625 -2.8825 -44.50390625 -3.5625 C-29.53838599 -9.21240428 -13.57344165 -8.47016639 0 0 Z " fill="#858585" transform="translate(440.50390625,108.5625)"/>
<path d="M0 0 C-3.92539622 2.57181131 -7.93824224 4.18171735 -12.375 5.625 C-13.00921875 5.8415625 -13.6434375 6.058125 -14.296875 6.28125 C-23.84999 9.4396268 -33.17618587 9.67213858 -43 8 C-42.67 7.34 -42.34 6.68 -42 6 C-39.2291017 5.97303991 -36.4584655 5.95318048 -33.6875 5.9375 C-32.90181641 5.92912109 -32.11613281 5.92074219 -31.30664062 5.91210938 C-30.54931641 5.90888672 -29.79199219 5.90566406 -29.01171875 5.90234375 C-28.31522217 5.89710693 -27.61872559 5.89187012 -26.90112305 5.88647461 C-25 6 -25 6 -22 7 C-22 6.34 -22 5.68 -22 5 C-20.906875 4.87625 -19.81375 4.7525 -18.6875 4.625 C-15 4 -15 4 -12 2 C-8.8125 1.875 -8.8125 1.875 -6 2 C-6 1.34 -6 0.68 -6 0 C-3.50907189 -1.24546405 -2.58919267 -0.7767578 0 0 Z " fill="#8E8E8E" transform="translate(135,233)"/>
<path d="M0 0 C0.56976563 0.28875 1.13953125 0.5775 1.7265625 0.875 C3.92498536 1.96287935 6.1375302 2.99510128 8.375 4 C9.10460937 4.33 9.83421875 4.66 10.5859375 5 C16.8044766 7.57596442 21.8270211 8.3122673 28.5 8.25 C29.32886719 8.25773438 30.15773437 8.26546875 31.01171875 8.2734375 C35.76875267 8.2583118 39.50755967 7.72368557 44 6 C46.875 5.875 46.875 5.875 49 6 C46.77008967 8.56439688 45.31920464 9.38840747 42 10 C37.60786241 10.27866455 33.21251893 10.2774494 28.8125 10.3125 C27.61818359 10.34150391 26.42386719 10.37050781 25.19335938 10.40039062 C17.80221658 10.45327167 12.4422613 9.64208101 6 6 C4.66908018 5.32852799 3.33640151 4.66049468 2 4 C2 3.34 2 2.68 2 2 C1.34 2 0.68 2 0 2 C0 1.34 0 0.68 0 0 Z " fill="#8E8E8E" transform="translate(158,224)"/>
<path d="M0 0 C-1.25810265 2.51620531 -2.30353155 2.80835636 -4.8125 4 C-5.49957031 4.33 -6.18664062 4.66 -6.89453125 5 C-7.58933594 5.33 -8.28414063 5.66 -9 6 C-9.67933594 6.34933594 -10.35867188 6.69867188 -11.05859375 7.05859375 C-20.74846137 11.75730219 -34.58129034 11.95350806 -45 10 C-41.23562305 7.56422668 -37.83305537 7.76523596 -33.4375 7.8125 C-33.10137695 7.81282227 -33.10137695 7.81282227 -31.40039062 7.81445312 C-28.33586829 7.8418421 -25.9272839 8.0242387 -23 9 C-23 8.34 -23 7.68 -23 7 C-16.25 5.875 -16.25 5.875 -14 7 C-13.67 6.01 -13.34 5.02 -13 4 C-11.67851173 3.62243192 -10.34164079 3.2981424 -9 3 C-8.175 2.484375 -7.35 1.96875 -6.5 1.4375 C-4 0 -4 0 0 0 Z " fill="#979797" transform="translate(425,200)"/>
<path d="M0 0 C5.57880477 0.06921099 9.84380866 1.11022207 14.94897461 3.25976562 C14.94897461 3.91976562 14.94897461 4.57976562 14.94897461 5.25976562 C14.28897461 5.25976562 13.62897461 5.25976562 12.94897461 5.25976562 C12.94897461 4.59976563 12.94897461 3.93976563 12.94897461 3.25976562 C4.63546568 3.15755035 -3.48204517 3.23400665 -11.75805664 4.13867188 C-14.05102539 4.25976562 -14.05102539 4.25976562 -16.05102539 3.25976562 C-16.05102539 3.91976562 -16.05102539 4.57976562 -16.05102539 5.25976562 C-17.04102539 4.92976563 -18.03102539 4.59976563 -19.05102539 4.25976562 C-16.29175195 1.50049219 -13.83948487 1.74193319 -10.05102539 1.25976562 C-7.79193331 -0.99932645 -3.04971269 0.01452071 0 0 Z " fill="#858585" transform="translate(337.051025390625,109.740234375)"/>
<path d="M0 0 C0.66 0.99 1.32 1.98 2 3 C1.52691406 2.92201172 1.52691406 2.92201172 -0.8671875 2.52734375 C-12.82487781 0.71205044 -25.12159387 0.25882936 -37 3 C-28.35516093 -5.2689765 -10.39429388 -2.86264058 0 0 Z " fill="#C6C6C6" transform="translate(431,114)"/>
<path d="M0 0 C0.33 0.99 0.66 1.98 1 3 C0.66806641 3.15146484 0.66806641 3.15146484 -1.01171875 3.91796875 C-6.2487288 6.40268155 -10.02680866 8.70465801 -14 13 C-16.28040348 14.7560069 -18.62544996 16.37040684 -21 18 C-21.33 17.34 -21.66 16.68 -22 16 C-17.375 11.125 -17.375 11.125 -14 10 C-14 9.34 -14 8.68 -14 8 C-13.34 8 -12.68 8 -12 8 C-12 7.34 -12 6.68 -12 6 C-8.04 4.02 -4.08 2.04 0 0 Z " fill="#818181" transform="translate(315,114)"/>
<path d="M0 0 C2.60478883 -0.0809313 5.20706653 -0.14045434 7.8125 -0.1875 C8.55048828 -0.21263672 9.28847656 -0.23777344 10.04882812 -0.26367188 C15.50994531 -0.33780469 15.50994531 -0.33780469 18.01171875 1.38671875 C19 3 19 3 19 5 C19.66 5 20.32 5 21 5 C21 7.31 21 9.62 21 12 C21.99 12 22.98 12 24 12 C24.66 9.36 25.32 6.72 26 4 C27.13757948 8.55031791 26.4283779 10.63084406 25 15 C23.35 15 21.7 15 20 15 C19.90234375 13.046875 19.8046875 11.09375 19.70703125 9.140625 C18.62421893 5.8622761 16.89655613 4.80645436 14 3 C10.44921875 2.171875 10.44921875 2.171875 6.6875 1.75 C5.43324219 1.60046875 4.17898438 1.4509375 2.88671875 1.296875 C1.93410156 1.19890625 0.98148437 1.1009375 0 1 C0 0.67 0 0.34 0 0 Z " fill="#909090" transform="translate(257,146)"/>
<path d="M0 0 C3.85768301 -0.60276297 5.69749656 0.33272256 8.75 2.5 C12.58616046 5.06223851 15.14216062 5.39395857 19.6796875 5.109375 C23.50674843 4.92897482 27.20596864 5.51821824 31 6 C30.67 6.66 30.34 7.32 30 8 C19.08452108 8.1613125 10.51874252 7.8534796 1 2 C0.67 1.34 0.34 0.68 0 0 Z " fill="#8A8A8A" transform="translate(239,237)"/>
<path d="M0 0 C0 1.98 0 3.96 0 6 C-0.33 6 -0.66 6 -1 6 C-1 4.35 -1 2.7 -1 1 C-1.33 1.165 -1.33 1.165 -3 2 C-4.5912342 2.21941219 -6.18929031 2.39059852 -7.7890625 2.53515625 C-8.25957031 2.57866211 -8.25957031 2.57866211 -10.640625 2.79882812 C-11.62546875 2.88583984 -12.6103125 2.97285156 -13.625 3.0625 C-14.12128906 3.10793945 -14.12128906 3.10793945 -16.6328125 3.33789062 C-19.08823868 3.56218436 -21.54394389 3.78273107 -24 4 C-24.12117188 4.77085938 -24.24234375 5.54171875 -24.3671875 6.3359375 C-24.53476563 7.33882813 -24.70234375 8.34171875 -24.875 9.375 C-25.03742188 10.37273437 -25.19984375 11.37046875 -25.3671875 12.3984375 C-26 15 -26 15 -28 17 C-27.88623383 14.87436897 -27.75864369 12.7494739 -27.625 10.625 C-27.55539063 9.44164063 -27.48578125 8.25828125 -27.4140625 7.0390625 C-27 4 -27 4 -25 2 C-22.27362087 1.52508235 -19.62153071 1.15992921 -16.875 0.875 C-16.14023438 0.78863281 -15.40546875 0.70226562 -14.6484375 0.61328125 C-9.7385286 0.06869628 -4.93892007 -0.07839556 0 0 Z " fill="#B9B9B9" transform="translate(116,117)"/>
<path d="M0 0 C3.62528568 -0.20140476 5.86501708 0.14223235 9 2 C9 2.66 9 3.32 9 4 C9.28617188 4.04576172 9.28617188 4.04576172 10.734375 4.27734375 C13.55455705 5.17688458 15.07584262 6.56952241 17.25 8.5625 C17.95640625 9.20316406 18.6628125 9.84382812 19.390625 10.50390625 C19.92171875 10.99761719 20.4528125 11.49132812 21 12 C21 11.34 21 10.68 21 10 C22.75 8.2734375 22.75 8.2734375 25 6.375 C25.7425 5.74335938 26.485 5.11171875 27.25 4.4609375 C27.8275 3.97882813 28.405 3.49671875 29 3 C29 6 29 6 26.625 8.6875 C24 11 24 11 22 11 C22 11.66 22 12.32 22 13 C17.83571874 12.63256342 15.93404988 11.15724766 12.890625 8.41015625 C9.02648365 5.52801776 4.42555153 3.85054201 0 2 C0 1.34 0 0.68 0 0 Z " fill="#929292" transform="translate(143,136)"/>
<path d="M0 0 C-8.85351899 6.21221916 -16.6097323 10.18596916 -27 13 C-27.33 12.34 -27.66 11.68 -28 11 C-24.91997572 8.81417632 -22.35540883 7.80304871 -18.6875 7.1875 C-14.0992145 6.29895055 -11.26601266 4.31851683 -7.7265625 1.33984375 C-4.82450162 -0.91220802 -3.49774176 -1.16591392 0 0 Z " fill="#8E8E8E" transform="translate(302,231)"/>
<path d="M0 0 C0 0.66 0 1.32 0 2 C-8.60536629 6.45574302 -16.47776028 9.23104638 -26 11 C-26 10.01 -26 9.02 -26 8 C-19.25 6.875 -19.25 6.875 -17 8 C-16.67 7.01 -16.34 6.02 -16 5 C-14.22265625 4.44140625 -14.22265625 4.44140625 -12 4 C-9.6798712 2.99876591 -7.40449891 1.92186204 -5.12109375 0.83984375 C-3 0 -3 0 0 0 Z " fill="#8B8B8B" transform="translate(505,191)"/>
<path d="M0 0 C0.33 0 0.66 0 1 0 C1.02687279 1.81242052 1.04633715 3.62495233 1.0625 5.4375 C1.07410156 6.44683594 1.08570313 7.45617187 1.09765625 8.49609375 C1 11 1 11 0 12 C-1.34049604 12.22598472 -2.69090293 12.39402959 -4.04296875 12.53515625 C-4.86990234 12.62216797 -5.69683594 12.70917969 -6.54882812 12.79882812 C-7.41958984 12.88583984 -8.29035156 12.97285156 -9.1875 13.0625 C-10.03892578 13.15337891 -10.89035156 13.24425781 -11.76757812 13.33789062 C-16.19908139 13.79372197 -20.5381281 14.10953859 -25 14 C-24.4140625 7.84765625 -24.4140625 7.84765625 -24 6 C-23.34 5.67 -22.68 5.34 -22 5 C-22.33 7.31 -22.66 9.62 -23 12 C-15.31102069 11.48594306 -7.65144206 10.9234499 0 10 C0 6.7 0 3.4 0 0 Z " fill="#919191" transform="translate(498,125)"/>
<path d="M0 0 C3.37462715 0.54723683 5.08235 1.0549 8 3 C10.8190918 3.31884766 10.8190918 3.31884766 14.19921875 3.4140625 C15.40771484 3.45273438 16.61621094 3.49140625 17.86132812 3.53125 C18.49264648 3.54671875 18.49264648 3.54671875 21.6875 3.625 C22.96173828 3.66367188 24.23597656 3.70234375 25.54882812 3.7421875 C28.69907292 3.83657686 31.84930991 3.9221583 35 4 C35 4.66 35 5.32 35 6 C34.41508789 5.99476318 33.83017578 5.98952637 33.22753906 5.98413086 C30.56837037 5.96329842 27.90921889 5.95031993 25.25 5.9375 C24.32960938 5.92912109 23.40921875 5.92074219 22.4609375 5.91210938 C21.57148437 5.90888672 20.68203125 5.90566406 19.765625 5.90234375 C19.35715332 5.89972534 19.35715332 5.89972534 17.29003906 5.88647461 C15 6 15 6 12.87695312 6.56835938 C9.88238293 7.25701704 7.94462856 5.87773537 5.25 4.5625 C4.26515625 4.08941406 3.2803125 3.61632812 2.265625 3.12890625 C1.51796875 2.75636719 0.7703125 2.38382813 0 2 C0 1.34 0 0.68 0 0 Z " fill="#595959" transform="translate(78,234)"/>
<path d="M0 0 C0 3 0 3 -1.125 4.5625 C-3 6 -3 6 -6.0625 6.9375 C-9.60448002 8.21864171 -9.47098252 8.77336615 -11 12 C-12.5859375 13.921875 -12.5859375 13.921875 -14.375 15.75 C-14.96023437 16.36359375 -15.54546875 16.9771875 -16.1484375 17.609375 C-18 19 -18 19 -22 19 C-22 18.34 -22 17.68 -22 17 C-20.68 17 -19.36 17 -18 17 C-18 16.34 -18 15.68 -18 15 C-16.32278959 13.43041807 -14.53205886 12.0519475 -12.7265625 10.6328125 C-11 9 -11 9 -10.0625 6.9765625 C-8.64211796 4.33423414 -7.01658393 3.60852888 -4.375 2.25 C-3.96636719 2.03601563 -3.96636719 2.03601563 -1.8984375 0.953125 C-1.58519531 0.79585937 -1.58519531 0.79585937 0 0 Z " fill="#5B5B5B" transform="translate(183,132)"/>
<path d="M0 0 C0.99773437 0.02320313 1.99546875 0.04640625 3.0234375 0.0703125 C3.52488281 0.07933594 3.52488281 0.07933594 6.0625 0.125 C6.83335937 0.14820313 7.60421875 0.17140625 8.3984375 0.1953125 C8.3984375 0.5253125 8.3984375 0.8553125 8.3984375 1.1953125 C8.08390625 1.185 8.08390625 1.185 6.4921875 1.1328125 C1.19919163 1.26035457 -2.13110957 2.00539502 -6.1015625 5.6328125 C-10.06368687 10.03428534 -11.12579655 14.39096785 -11.6015625 20.1953125 C-12.2615625 20.1953125 -12.9215625 20.1953125 -13.6015625 20.1953125 C-13.6015625 21.8453125 -13.6015625 23.4953125 -13.6015625 25.1953125 C-13.9315625 25.1953125 -14.2615625 25.1953125 -14.6015625 25.1953125 C-15.16560543 17.58073301 -12.9794767 11.9511409 -9.6015625 5.1953125 C-7.94623627 4.17665021 -6.27896112 3.17720437 -4.6015625 2.1953125 C-2.6015625 0.1953125 -2.6015625 0.1953125 0 0 Z " fill="#838383" transform="translate(405.6015625,130.8046875)"/>
<path d="M0 0 C5.24586082 1.9543403 8.04600112 3.93913629 12 8 C14 9.125 14 9.125 16 9 C18.75 6.5625 18.75 6.5625 21 4 C21.66 4.33 22.32 4.66 23 5 C17.02956221 11.89955491 17.02956221 11.89955491 13.4375 12.25 C10.82466518 10.91008471 8.67742923 9.29472931 6.4921875 7.3359375 C5.09863946 6.08831072 3.61355045 4.94509273 2.125 3.8125 C1.42375 3.214375 0.7225 2.61625 0 2 C0 1.34 0 0.68 0 0 Z " fill="#8A8A8A" transform="translate(353,114)"/>
<path d="M0 0 C-3 1 -3 1 -5.5078125 0.0703125 C-10.33595945 -1.40945513 -14.85900577 -1.21335762 -19.875 -1.125 C-20.84953125 -1.11597656 -21.8240625 -1.10695312 -22.828125 -1.09765625 C-25.21900728 -1.07421623 -27.60937261 -1.04140442 -30 -1 C-23.08177187 -7.91822813 -7.35544708 -4.80355728 0 0 Z " fill="#B2B2B2" transform="translate(149,148)"/>
<path d="M0 0 C0.74958984 0.00451172 1.49917969 0.00902344 2.27148438 0.01367188 C4.11852383 0.02543646 5.96552213 0.04337135 7.8125 0.0625 C7.8125 0.7225 7.8125 1.3825 7.8125 2.0625 C8.8025 2.3925 9.7925 2.7225 10.8125 3.0625 C13.10263653 6.4977048 12.99092973 8.047831 12.8125 12.0625 C12.4825 12.2275 12.4825 12.2275 10.8125 13.0625 C10.8125 10.7525 10.8125 8.4425 10.8125 6.0625 C10.1525 6.0625 9.4925 6.0625 8.8125 6.0625 C8.1525 4.4125 7.4925 2.7625 6.8125 1.0625 C5.9875 1.2275 5.1625 1.3925 4.3125 1.5625 C1.65506013 1.94213427 -0.59927883 2.10273865 -3.25 2.0625 C-6.46496003 2.0625 -9.09327563 2.28894391 -12.1875 3.0625 C-9.97894074 -1.35461851 -4.30476406 -0.04887505 0 0 Z " fill="#888888" transform="translate(113.1875,106.9375)"/>
<path d="M0 0 C0.33 0 0.66 0 1 0 C0.96519531 1.2065625 0.93039062 2.413125 0.89453125 3.65625 C0.86637016 5.27081928 0.83907251 6.88540379 0.8125 8.5 C0.78736328 9.29148438 0.76222656 10.08296875 0.73632812 10.8984375 C0.65636674 17.40196345 2.07830777 22.15661553 5 28 C2 27 2 27 0.8125 25.1875 C0 23 0 23 0 19 C-0.66 19 -1.32 19 -2 19 C-2 14.38 -2 9.76 -2 5 C-1.34 5 -0.68 5 0 5 C0 3.35 0 1.7 0 0 Z " fill="#878787" transform="translate(363,164)"/>
<path d="M0 0 C0.33 0 0.66 0 1 0 C1.80652479 9.94713903 -2.10936204 18.27926093 -8 26 C-8.33 25.34 -8.66 24.68 -9 24 C-8.07421875 22.29296875 -8.07421875 22.29296875 -6.6875 20.1875 C-3.73392776 15.17784985 -3.06652802 10.44924675 -2.45703125 4.72265625 C-2 2 -2 2 0 0 Z " fill="#9E9E9E" transform="translate(316,198)"/>
<path d="M0 0 C1.65 0.33 3.3 0.66 5 1 C4.67 1.66 4.34 2.32 4 3 C3.01 3 2.02 3 1 3 C-0.54296875 4.390625 -0.54296875 4.390625 -2.1875 6.25 C-5.77521136 10.0293626 -9.24809365 11.91583055 -14 14 C-12.17281411 9.82357512 -9.83206257 8.45252005 -6 6 C-5.62875 5.62875 -5.62875 5.62875 -3.75 3.75 C-3.46125 3.46125 -3.46125 3.46125 -2 2 C-1.34 2 -0.68 2 0 2 C0 1.34 0 0.68 0 0 Z " fill="#8F8F8F" transform="translate(149,218)"/>
<path d="M0 0 C0.33 0 0.66 0 1 0 C1.02727678 2.97923003 1.04697128 5.95820379 1.0625 8.9375 C1.07087891 9.76830078 1.07925781 10.59910156 1.08789062 11.45507812 C1.11966057 19.61995299 0.48834387 27.20318922 -2 35 C-2.33 35 -2.66 35 -3 35 C-3.16136287 30.64320259 -3.04670973 26.81282792 -2.0625 22.5625 C-0.42319433 15.15655877 -0.33302103 7.55431917 0 0 Z " fill="#8C8C8C" transform="translate(156,157)"/>
<path d="M0 0 C0.32871094 0.10248047 0.32871094 0.10248047 1.9921875 0.62109375 C11.2980354 3.2564897 20.39470683 3.69049611 30 4 C30 4.33 30 4.66 30 5 C26.31277073 5.11701204 22.62602458 5.18752045 18.9375 5.25 C17.89916016 5.28351563 16.86082031 5.31703125 15.79101562 5.3515625 C9.25707407 5.43453319 5.338733 4.84691683 0 1 C0 0.67 0 0.34 0 0 Z " fill="#A6A6A6" transform="translate(84,227)"/>
<path d="M0 0 C0.33 1.32 0.66 2.64 1 4 C8.26 3.67 15.52 3.34 23 3 C23 3.33 23 3.66 23 4 C20.31306278 4.33851178 17.62559711 4.670936 14.9375 5 C14.56141602 5.04769531 14.56141602 5.04769531 12.65820312 5.2890625 C8.06578683 5.84571902 3.6257865 6.09829028 -1 6 C-1.042721 4.33388095 -1.04063832 2.66617115 -1 1 C-0.67 0.67 -0.34 0.34 0 0 Z " fill="#808080" transform="translate(330,195)"/>
<path d="M0 0 C0.66 0.33 1.32 0.66 2 1 C1.57847656 1.47050781 1.15695313 1.94101563 0.72265625 2.42578125 C0.17480469 3.04839844 -0.37304688 3.67101562 -0.9375 4.3125 C-1.48277344 4.92738281 -2.02804688 5.54226562 -2.58984375 6.17578125 C-4 8 -4 8 -5 11 C-5.66 11 -6.32 11 -7 11 C-7 13.97 -7 16.94 -7 20 C-7.66 20 -8.32 20 -9 20 C-8.67 16.37 -8.34 12.74 -8 9 C-7.34 9 -6.68 9 -6 9 C-5.9690625 8.62875 -5.9690625 8.62875 -5.8125 6.75 C-4.75814862 3.1814261 -3.00090227 2.07754772 0 0 Z " fill="#7F7F7F" transform="translate(112,165)"/>
<path d="M0 0 C2.64 0.33 5.28 0.66 8 1 C8 1.66 8 2.32 8 3 C8.66 2.731875 9.32 2.46375 10 2.1875 C14.57400829 1.90162448 17.38167794 4.40522314 21 7 C20.34 7.66 19.68 8.32 19 9 C18.49210937 8.65066406 17.98421875 8.30132812 17.4609375 7.94140625 C13.27242302 5.17259424 10.09869625 3.45321744 5 3 C3.33195323 2.67364302 1.66475686 2.34274406 0 2 C0 1.34 0 0.68 0 0 Z " fill="#787878" transform="translate(217,128)"/>
<path d="M0 0 C0 4.35637821 -2.27897057 6.05610053 -5.109375 9.19140625 C-7.24427494 11.23367623 -9.12212703 12.30233382 -12 13 C-12.33 12.34 -12.66 11.68 -13 11 C-8.73958774 7.23645964 -4.48151089 3.50118038 0 0 Z " fill="#7F7F7F" transform="translate(461,104)"/>
<path d="M0 0 C0.66 0 1.32 0 2 0 C2 3.3 2 6.6 2 10 C2.66 10 3.32 10 4 10 C3.88570603 11.77155654 3.75816963 13.54226229 3.625 15.3125 C3.59019531 15.80556641 3.59019531 15.80556641 3.4140625 18.30078125 C3 21 3 21 1 24 C1.00580078 23.61457031 1.00580078 23.61457031 1.03515625 21.6640625 C1.04417969 20.66117188 1.05320312 19.65828125 1.0625 18.625 C1.07410156 17.62726563 1.08570313 16.62953125 1.09765625 15.6015625 C1 13 1 13 0 11 C-0.07033769 9.12620395 -0.0843022 7.24998898 -0.0625 5.375 C-0.05347656 4.37210938 -0.04445313 3.36921875 -0.03515625 2.3359375 C-0.02355469 1.56507813 -0.01195312 0.79421875 0 0 Z " fill="#6F6F6F" transform="translate(444,129)"/>
<path d="M0 0 C0.66 0.33 1.32 0.66 2 1 C-2.9265384 5.19279864 -5.79258598 6.5546903 -12.27734375 6.17578125 C-12.84582031 6.11777344 -13.41429688 6.05976563 -14 6 C-14 5.34 -14 4.68 -14 4 C-14.66 3.67 -15.32 3.34 -16 3 C-15.34773438 3.03480469 -14.69546875 3.06960937 -14.0234375 3.10546875 C-8.42169783 3.27897396 -4.96578452 2.8553261 0 0 Z " fill="#C2C2C2" transform="translate(119,209)"/>
<path d="M0 0 C2.4375 0.8125 2.4375 0.8125 5 2 C5.33 2.99 5.66 3.98 6 5 C6.66 5 7.32 5 8 5 C9.0625 6.8125 9.0625 6.8125 10 9 C9.67 9.99 9.34 10.98 9 12 C8.79375 11.4225 8.5875 10.845 8.375 10.25 C7 8 7 8 3.9375 6 C1 4 1 4 0.125 1.75 C0.08375 1.1725 0.0425 0.595 0 0 Z " fill="#787878" transform="translate(521,101)"/>
<path d="M0 0 C0.29583984 0.17466797 0.29583984 0.17466797 1.79296875 1.05859375 C2.18806641 1.28611328 2.18806641 1.28611328 4.1875 2.4375 C4.96480469 2.88996094 5.74210937 3.34242188 6.54296875 3.80859375 C9.04931977 5.02391499 11.25790365 5.57626575 14 6 C14 6.66 14 7.32 14 8 C8.29290936 7.53411505 4.84060277 6.06242216 0 3 C0 2.01 0 1.02 0 0 Z " fill="#898989" transform="translate(366,201)"/>
<path d="M0 0 C1.15941038 3.47823115 0.70820884 5.45895578 0 9 C0.5775 8.649375 1.155 8.29875 1.75 7.9375 C4.35801776 6.85082593 5.39417629 7.06934867 8 8 C4.48812804 10.40814077 2.27343092 11.36629408 -2 11 C-1.85892253 9.54119891 -1.71197585 8.08296449 -1.5625 6.625 C-1.48128906 5.81289062 -1.40007812 5.00078125 -1.31640625 4.1640625 C-1 2 -1 2 0 0 Z " fill="#BDBDBD" transform="translate(111,140)"/>
<path d="M0 0 C1.65 0 3.3 0 5 0 C5 0.99 5 1.98 5 3 C-1.93 3 -8.86 3 -16 3 C-16 2.67 -16 2.34 -16 2 C-10.72 2 -5.44 2 0 2 C0 1.34 0 0.68 0 0 Z " fill="#5D5D5D" transform="translate(138,135)"/>
<path d="M0 0 C3.37462715 0.54723683 5.08235 1.0549 8 3 C8.70125 3.144375 9.4025 3.28875 10.125 3.4375 C10.74375 3.623125 11.3625 3.80875 12 4 C12.33 4.99 12.66 5.98 13 7 C11.58208592 6.54554036 10.16571954 6.08625056 8.75 5.625 C7.96109375 5.36976563 7.1721875 5.11453125 6.359375 4.8515625 C4.13372042 4.04826333 2.09068328 3.10288338 0 2 C0 1.34 0 0.68 0 0 Z " fill="#888888" transform="translate(78,234)"/>
<path d="M0 0 C0.33 0.99 0.66 1.98 1 3 C-0.06893218 4.03590338 -1.15578488 5.05333942 -2.25 6.0625 C-2.55164063 6.34673828 -2.55164063 6.34673828 -4.078125 7.78515625 C-6 9 -6 9 -8.234375 8.68359375 C-8.81703125 8.45800781 -9.3996875 8.23242188 -10 8 C-7.62630732 5.37644494 -5.03386523 3.78920257 -2 2 C-1.34 1.34 -0.68 0.68 0 0 Z " fill="#7C7C7C" transform="translate(433,191)"/>
<path d="M0 0 C0 3 0 3 -1.0625 4.625 C-3.87456882 6.62066174 -6.62268141 6.68138504 -10 7 C-7.0094833 3.66442368 -4.06815373 1.84916079 0 0 Z " fill="#8A8A8A" transform="translate(183,132)"/>
<path d="M0 0 C0 2.83967231 -0.40267181 5.23735711 -1 8 C-1.66 8 -2.32 8 -3 8 C-2.979375 8.94875 -2.95875 9.8975 -2.9375 10.875 C-3 14 -3 14 -4 16 C-4.66 16 -5.32 16 -6 16 C-4.44191344 4.29384966 -4.44191344 4.29384966 0 0 Z " fill="#959595" transform="translate(85,111)"/>
<path d="M0 0 C0.53625 0.0928125 0.53625 0.0928125 3.25 0.5625 C6.40391546 0.9304568 8.09818492 1.04465343 11 0 C11.33 0.99 11.66 1.98 12 3 C9.24921116 3.91692961 7.64051087 4.10886083 4.8125 4.0625 C4.1834375 4.0521875 4.1834375 4.0521875 1 4 C0.67 2.68 0.34 1.36 0 0 Z " fill="#8F8F8F" transform="translate(245,146)"/>
<path d="M0 0 C0.33 0 0.66 0 1 0 C1.22084624 6.09781001 1.01167675 11.21642935 -1 17 C-1.33 17 -1.66 17 -2 17 C-2.22084624 10.90218999 -2.01167675 5.78357065 0 0 Z " fill="#ABABAB" transform="translate(78,180)"/>
<path d="M0 0 C0.33 0 0.66 0 1 0 C1.34833144 4.87664009 0.41685712 7.77050005 -2 12 C-3.18446753 9.63106495 -3.00689755 8.5933174 -2.6875 6 C-2.64818359 5.649375 -2.64818359 5.649375 -2.44921875 3.875 C-2 2 -2 2 0 0 Z " fill="#838383" transform="translate(316,198)"/>
<path d="M0 0 C0.66 0.33 1.32 0.66 2 1 C2.66666667 3.33333333 3.33333333 5.66666667 4 8 C4.66 8.33 5.32 8.66 6 9 C5.67 9.99 5.34 10.98 5 12 C1.1334716 8.777893 0.11940982 5.85077588 -1 1 C-0.67 0.67 -0.34 0.34 0 0 Z " fill="#919191" transform="translate(320,197)"/>
<path d="M0 0 C1.32 0.66 2.64 1.32 4 2 C3.67 2.66 3.34 3.32 3 4 C2.01 4 1.02 4 0 4 C-1.60546875 5.09375 -1.60546875 5.09375 -3.1875 6.5 C-4.115625 7.325 -5.04375 8.15 -6 9 C-6 6 -6 6 -3.5625 3.375 C-2.716875 2.59125 -1.87125 1.8075 -1 1 C-0.67 0.67 -0.34 0.34 0 0 Z " fill="#959595" transform="translate(362,199)"/>
<path d="M0 0 C-0.33 0.165 -0.33 0.165 -2 1 C-2.33 1.99 -2.66 2.98 -3 4 C-5.64 3.34 -8.28 2.68 -11 2 C-7.36576791 -0.32590854 -4.22911669 -0.16265833 0 0 Z " fill="#838383" transform="translate(97,109)"/>
<path d="M0 0 C-1.69179328 2.04219706 -2.63727666 2.91793306 -5.26171875 3.51171875 C-6.06222656 3.56972656 -6.86273438 3.62773438 -7.6875 3.6875 C-8.49574219 3.75324219 -9.30398438 3.81898437 -10.13671875 3.88671875 C-10.44416016 3.90541016 -10.44416016 3.90541016 -12 4 C-12.33 3.34 -12.66 2.68 -13 2 C-11.21089097 1.47044766 -9.41860852 0.9516063 -7.625 0.4375 C-6.62726563 0.14746094 -5.62953125 -0.14257812 -4.6015625 -0.44140625 C-2 -1 -2 -1 0 0 Z " fill="#929292" transform="translate(409,103)"/>
<path d="M0 0 C-0.33 0.99 -0.66 1.98 -1 3 C-4.63 2.67 -8.26 2.34 -12 2 C-12 1.67 -12 1.34 -12 1 C-7.9472484 0.01751476 -4.16138263 -0.08159574 0 0 Z " fill="#656565" transform="translate(276,241)"/>
<path d="M0 0 C1.07310858 3.27185553 0.89263102 5.42947592 0.0625 8.75 C-0.03482422 9.14960938 -0.03482422 9.14960938 -0.52734375 11.171875 C-0.68332031 11.77515625 -0.83929688 12.3784375 -1 13 C-1.99 13 -2.98 13 -4 13 C-3.71517632 11.58194169 -3.42181856 10.16559621 -3.125 8.75 C-2.96257812 7.96109375 -2.80015625 7.1721875 -2.6328125 6.359375 C-2.00849925 4.03168856 -1.15161458 2.10968048 0 0 Z " fill="#898989" transform="translate(70,180)"/>
<path d="M0 0 C0.66 0 1.32 0 2 0 C1.67 3.3 1.34 6.6 1 10 C0.01 10.33 -0.98 10.66 -2 11 C-1.40049704 7.31733897 -0.75241109 3.65456815 0 0 Z " fill="#858585" transform="translate(73,159)"/>
<path d="M0 0 C-0.1875 1.875 -0.1875 1.875 -1 4 C-3.375 5.3125 -3.375 5.3125 -6 6 C-6.99 5.67 -7.98 5.34 -9 5 C-7.68 4.67 -6.36 4.34 -5 4 C-5 3.34 -5 2.68 -5 2 C-2 0 -2 0 0 0 Z " fill="#808080" transform="translate(386,110)"/>
<path d="M0 0 C1.32 0.66 2.64 1.32 4 2 C4 2.66 4 3.32 4 4 C4.66 4 5.32 4 6 4 C6 6.31 6 8.62 6 11 C5.67 11 5.34 11 5 11 C4.7525 10.0925 4.505 9.185 4.25 8.25 C2.96018658 4.89648511 1.68028958 3.32291764 -1 1 C-0.67 0.67 -0.34 0.34 0 0 Z " fill="#8B8B8B" transform="translate(272,147)"/>
<path d="M0 0 C0.33 0.66 0.66 1.32 1 2 C-0.32 2 -1.64 2 -3 2 C-3 2.66 -3 3.32 -3 4 C-4.98 4.99 -6.96 5.98 -9 7 C-8.75390625 5.109375 -8.75390625 5.109375 -8 3 C-6.15234375 1.953125 -6.15234375 1.953125 -3.9375 1.25 C-3.57076172 1.12882813 -3.57076172 1.12882813 -1.71484375 0.515625 C-1.14894531 0.34546875 -0.58304688 0.1753125 0 0 Z " fill="#8A8A8A" transform="translate(227,219)"/>
<path d="M0 0 C2.33333333 2.33333333 4.66666667 4.66666667 7 7 C6.67 7.99 6.34 8.98 6 10 C4.99106869 8.90398831 3.99311775 7.79786082 3 6.6875 C2.7215625 6.38005859 2.7215625 6.38005859 1.3125 4.82421875 C0 3 0 3 0 0 Z " fill="#919191" transform="translate(238,136)"/>
<path d="M0 0 C-0.78375 0.2475 -1.5675 0.495 -2.375 0.75 C-5.32317108 2.15389099 -5.9024777 3.00675737 -7 6 C-7.99 6 -8.98 6 -10 6 C-9.525625 5.38125 -9.05125 4.7625 -8.5625 4.125 C-7 2 -7 2 -6 0 C-2.49056604 -1.24528302 -2.49056604 -1.24528302 0 0 Z " fill="#5D5D5D" transform="translate(382,116)"/>
<path d="M0 0 C0.33 0.66 0.66 1.32 1 2 C-5.625 4.875 -5.625 4.875 -9 6 C-9.33 5.34 -9.66 4.68 -10 4 C-6.6659053 1.80902348 -3.95820859 0.56545837 0 0 Z " fill="#7C7C7C" transform="translate(284,238)"/>
<path d="M0 0 C-1.28610235 2.5722047 -2.33393981 3.00974907 -5 4 C-7.25 3.625 -7.25 3.625 -9 3 C-5.55930376 0.70620251 -4.27709699 0 0 0 Z " fill="#838383" transform="translate(425,200)"/>
<path d="M0 0 C-0.33 0.99 -0.66 1.98 -1 3 C-2.485 3.165 -2.485 3.165 -10 4 C-9 2 -9 2 -6.6875 0.875 C-4 0 -4 0 0 0 Z " fill="#B8B8B8" transform="translate(324,122)"/>
<path d="M0 0 C-0.33 0.66 -0.66 1.32 -1 2 C-3.31 2 -5.62 2 -8 2 C-8 1.34 -8 0.68 -8 0 C-5.13822943 -1.43088528 -3.06624227 -0.59991697 0 0 Z " fill="#606060" transform="translate(103,110)"/>
<path d="M0 0 C1.65 0.33 3.3 0.66 5 1 C4.67 1.66 4.34 2.32 4 3 C3.01 3 2.02 3 1 3 C0.34 3.66 -0.32 4.32 -1 5 C-1.99 4.67 -2.98 4.34 -4 4 C-2.68 3.34 -1.36 2.68 0 2 C0 1.34 0 0.68 0 0 Z " fill="#858585" transform="translate(149,218)"/>
<path d="M0 0 C1.98567708 0.5859375 3.97135417 1.171875 5.95703125 1.7578125 C2.95703125 3.7578125 2.95703125 3.7578125 0.9140625 3.515625 C-1.07161458 2.9296875 -3.05729167 2.34375 -5.04296875 1.7578125 C-2.04296875 -0.2421875 -2.04296875 -0.2421875 0 0 Z " fill="#8F8F8F" transform="translate(462.04296875,198.2421875)"/>
<path d="M0 0 C3.26460973 1.80412643 4.88929795 2.83394693 7 6 C4 6 4 6 1.8125 4.125 C0 2 0 2 0 0 Z " fill="#8B8B8B" transform="translate(440,109)"/>
<path d="M0 0 C1.485 0.33 1.485 0.33 9 2 C8.67 2.66 8.34 3.32 8 4 C5.69 3.67 3.38 3.34 1 3 C0.67 2.01 0.34 1.02 0 0 Z " fill="#767676" transform="translate(452,195)"/>
<path d="M0 0 C0.66 0.33 1.32 0.66 2 1 C0.02 3.31 -1.96 5.62 -4 8 C-4 4.09161134 -2.49432124 2.88405893 0 0 Z " fill="#6C6C6C" transform="translate(481,124)"/>
<path d="M0 0 C3 1 3 1 5 4 C4.67 4.99 4.34 5.98 4 7 C2.35 5.02 0.7 3.04 -1 1 C-0.67 0.67 -0.34 0.34 0 0 Z " fill="#757575" transform="translate(361,119)"/>
</svg>
