<?xml version="1.0" encoding="UTF-8"?>
<!-- Generator: visioncortex VTracer 0.6.12 -->
<svg version="1.1" xmlns="http://www.w3.org/2000/svg" width="250" height="118">
<path d="M0 0 C28.43998796 13.33403046 52.17025924 21.67899813 83.75 18.7109375 C83.75 22.3409375 83.75 25.9709375 83.75 29.7109375 C90.35 29.7109375 96.95 29.7109375 103.75 29.7109375 C103.75 54.4609375 103.75 79.2109375 103.75 104.7109375 C22.57 104.7109375 -58.61 104.7109375 -142.25 104.7109375 C-142.25 79.9609375 -142.25 55.2109375 -142.25 29.7109375 C-135.65 29.7109375 -129.05 29.7109375 -122.25 29.7109375 C-122.25 26.0809375 -122.25 22.4509375 -122.25 18.7109375 C-121.77038818 18.7560144 -121.77038818 18.7560144 -119.34326172 18.98413086 C-86.67932917 21.66749321 -61.43440362 11.14133559 -32.35107422 -2.85302734 C-31.90625702 -3.06261078 -31.90625702 -3.06261078 -29.6552124 -4.12322998 C-28.19000446 -4.83343215 -26.7409595 -5.58032838 -25.32769775 -6.38897705 C-17.12269028 -10.80452914 -7.47107855 -3.60306724 0 0 Z " fill="#3C3C3C" transform="translate(144.25,10.2890625)"/>
<path d="M0 0 C3.3 0 6.6 0 10 0 C10 10.89 10 21.78 10 33 C12.31 33 14.62 33 17 33 C17 22.44 17 11.88 17 1 C20.63 1 24.26 1 28 1 C28.0741205 6.35682133 28.12858776 11.71334462 28.16479492 17.07055664 C28.1798876 18.89320067 28.20036395 20.71580836 28.22631836 22.53833008 C28.26268103 25.157155 28.27972124 27.77550007 28.29296875 30.39453125 C28.30845261 31.21025101 28.32393646 32.02597076 28.33988953 32.8664093 C28.34159207 38.58102167 28.34159207 38.58102167 26.5993042 40.71801758 C24.5662692 42.34767324 23.49072334 42.34983513 20.91015625 42.29296875 C20.51795898 42.28813477 20.51795898 42.28813477 18.53320312 42.26367188 C17.71787109 42.23853516 16.90253906 42.21339844 16.0625 42.1875 C15.25103516 42.17396484 14.43957031 42.16042969 13.60351562 42.14648438 C12.08848935 42.12038466 10.57354752 42.08811133 9.05883789 42.04760742 C5.62833775 41.96828245 2.20643785 42.01377347 -1.22265625 42.10546875 C-2.83592984 42.13326099 -4.44921145 42.1605905 -6.0625 42.1875 C-6.47016602 42.20006836 -6.47016602 42.20006836 -8.53320312 42.26367188 C-9.31759766 42.27333984 -10.10199219 42.28300781 -10.91015625 42.29296875 C-11.62308838 42.3086792 -12.33602051 42.32438965 -13.07055664 42.34057617 C-15.61713599 41.89106609 -16.38121522 40.9855137 -18 39 C-18.26167679 36.05815259 -18.34873921 33.3326279 -18.29296875 30.39453125 C-18.28872391 29.55532639 -18.28447906 28.71612152 -18.28010559 27.85148621 C-18.26331464 25.17149755 -18.2256623 22.4922613 -18.1875 19.8125 C-18.17245367 17.99545357 -18.15876518 16.17839535 -18.14648438 14.36132812 C-18.11340982 9.90726224 -18.06162513 5.45375868 -18 1 C-14.37 1 -10.74 1 -7 1 C-7 11.56 -7 22.12 -7 33 C-4.69 33 -2.38 33 0 33 C0 22.11 0 11.22 0 0 Z " fill="#FBFBFB" transform="translate(120,58)"/>
<path d="M0 0 C1.14533203 -0.01998047 2.29066406 -0.03996094 3.47070312 -0.06054688 C4.57220703 -0.05990234 5.67371094 -0.05925781 6.80859375 -0.05859375 C7.31225464 -0.05952026 7.31225464 -0.05952026 9.86108398 -0.06420898 C12.5625 0.4375 12.5625 0.4375 14.89111328 1.97216797 C17.19317626 5.3677613 17.11911706 8.41624376 17.05859375 12.37890625 C17.06004898 13.14299301 17.06150421 13.90707977 17.06300354 14.69432068 C17.06134707 16.3056114 17.04981383 17.91691835 17.02905273 19.52807617 C17.00005511 21.995311 17.00845572 24.46040184 17.02148438 26.92773438 C17.01524786 28.49480211 17.00685759 30.06186307 16.99609375 31.62890625 C16.99902939 32.36645645 17.00196503 33.10400665 17.00498962 33.86390686 C16.95259246 36.70427398 16.8658075 38.91645319 15.41845703 41.40283203 C12.71055587 42.91244596 10.52179514 42.80912957 7.43359375 42.80078125 C6.23412109 42.80013672 5.03464844 42.79949219 3.79882812 42.79882812 C2.54521484 42.78271484 1.29160156 42.76660156 0 42.75 C-0.62874023 42.75161133 -0.62874023 42.75161133 -3.81054688 42.75976562 C-13.17061942 42.70438058 -13.17061942 42.70438058 -15.4375 40.4375 C-15.649612 37.67589603 -15.74147075 35.01711948 -15.73828125 32.25390625 C-15.74256638 31.4425975 -15.7468515 30.63128876 -15.75126648 29.7953949 C-15.757014 28.07804295 -15.75750694 26.36066665 -15.75317383 24.64331055 C-15.7500165 22.0137378 -15.77345748 19.38529269 -15.79882812 16.75585938 C-15.80110132 15.08854309 -15.80180452 13.42122377 -15.80078125 11.75390625 C-15.809991 10.96633438 -15.81920074 10.17876251 -15.82868958 9.36732483 C-15.78336675 4.02586273 -15.78336675 4.02586273 -14.26611328 1.44482422 C-10.05462008 -0.87515188 -4.67672814 -0.0288525 0 0 Z " fill="#F9F9F9" transform="translate(79.4375,57.5625)"/>
<path d="M0 0 C8.91 0 17.82 0 27 0 C27 3.3 27 6.6 27 10 C21.72 10 16.44 10 11 10 C11 12.31 11 14.62 11 17 C16.28 17 21.56 17 27 17 C27 19.97 27 22.94 27 26 C22.05 26 17.1 26 12 26 C12 27.98 12 29.96 12 32 C16.95 32 21.9 32 27 32 C27 35.3 27 38.6 27 42 C18.09 42 9.18 42 0 42 C0 28.14 0 14.28 0 0 Z " fill="#F7F7F7" transform="translate(154,58)"/>
<path d="M0 0 C4.2804878 1.8429878 4.2804878 1.8429878 5.5 3.0625 C5.57179964 4.58178038 5.58392007 6.10417482 5.5625 7.625 C5.55347656 8.45128906 5.54445312 9.27757813 5.53515625 10.12890625 C5.52355469 10.76699219 5.51195312 11.40507813 5.5 12.0625 C4.943125 11.8459375 4.38625 11.629375 3.8125 11.40625 C-1.55188593 9.44897405 -5.79852383 8.75151039 -11.5 9.0625 C-11.5 10.7125 -11.5 12.3625 -11.5 14.0625 C-10.675 14.289375 -9.85 14.51625 -9 14.75 C-2.90550833 17.03543437 3.23977851 20.22126984 6.5 26.0625 C7.21689218 30.10840873 6.92700217 33.14749535 5.1875 36.875 C2.44378295 40.43167025 0.95931303 42.17381128 -3.5 43.0625 C-10.50714413 43.69181174 -15.96733156 42.59127488 -22.5 40.0625 C-22.5 37.0925 -22.5 34.1225 -22.5 31.0625 C-21.84773437 31.206875 -21.19546875 31.35125 -20.5234375 31.5 C-15.77379823 32.50877294 -11.38590812 33.31965306 -6.5 33.0625 C-6.17 31.7425 -5.84 30.4225 -5.5 29.0625 C-6.46421875 28.55460937 -7.4284375 28.04671875 -8.421875 27.5234375 C-9.69833492 26.82889313 -10.97435352 26.13353726 -12.25 25.4375 C-12.88421875 25.10621094 -13.5184375 24.77492188 -14.171875 24.43359375 C-18.57935322 22.00029848 -21.09508892 19.63480007 -23.5 15.0625 C-24.40902556 11.30101494 -24.36769169 7.67784697 -22.51171875 4.22265625 C-16.37964453 -3.54210646 -8.62824091 -3.39937858 0 0 Z " fill="#F9F9F9" transform="translate(214.5,58.9375)"/>
<path d="M0 0 C3.63 0 7.26 0 11 0 C11 13.53 11 27.06 11 41 C16.61 41 22.22 41 28 41 C28 44.3 28 47.6 28 51 C18.76 51 9.52 51 0 51 C0 34.17 0 17.34 0 0 Z " fill="#F9F9F9" transform="translate(31,49)"/>
<path d="M0 0 C3.3 0 6.6 0 10 0 C10 7.59 10 15.18 10 23 C6.7 23 3.4 23 0 23 C0 15.41 0 7.82 0 0 Z " fill="#4A4A4A" transform="translate(75,68)"/>
<path d="M0 0 C3.3 0 6.6 0 10 0 C9.85915204 1.79206547 9.71216299 3.58364917 9.5625 5.375 C9.48128906 6.37273438 9.40007812 7.37046875 9.31640625 8.3984375 C9 11 9 11 8 13 C5.36 13 2.72 13 0 13 C0 8.71 0 4.42 0 0 Z " fill="#E2E2E2" transform="translate(183,49)"/>
<path d="M0 0 C0.4021875 0.0103125 0.4021875 0.0103125 2.4375 0.0625 C3.0625 2.4375 3.0625 2.4375 3.4375 5.0625 C2.7775 5.7225 2.1175 6.3825 1.4375 7.0625 C-0.6875 6.6875 -0.6875 6.6875 -2.5625 6.0625 C-2.94468767 4.40635343 -3.27645102 2.73792976 -3.5625 1.0625 C-2.5625 0.0625 -2.5625 0.0625 0 0 Z " fill="#8D8D8D" transform="translate(225.5625,56.9375)"/>
</svg>
