<?xml version="1.0" encoding="UTF-8"?>
<!-- Generator: visioncortex VTracer 0.6.12 -->
<svg version="1.1" xmlns="http://www.w3.org/2000/svg" width="250" height="250">
<path d="M0 0 C0.71936737 -0.00067474 1.43873474 -0.00134949 2.17990112 -0.00204468 C12.59778005 0.01350982 22.46474828 0.34821271 32.5625 3.25 C33.78839844 3.5903125 35.01429688 3.930625 36.27734375 4.28125 C68.30680162 14.06527428 95.82459752 36.21745102 111.875 65.625 C121.5853033 84.15863123 125.79504995 103.88023199 125.8125 124.6875 C125.81317474 125.40686737 125.81384949 126.12623474 125.81454468 126.86740112 C125.79899018 137.28528005 125.46428729 147.15224828 122.5625 157.25 C122.2221875 158.47589844 121.881875 159.70179688 121.53125 160.96484375 C111.74907625 192.98824363 89.59688156 220.52208122 60.1875 236.5625 C52.28813957 240.67640593 44.08930544 243.71690837 35.5625 246.25 C34.87333496 246.46172852 34.18416992 246.67345703 33.47412109 246.89160156 C13.73759382 252.71791675 -11.66443393 252.93217889 -31.4375 247.25 C-32.66339844 246.9096875 -33.88929687 246.569375 -35.15234375 246.21875 C-67.18180162 236.43472572 -94.69959752 214.28254898 -110.75 184.875 C-120.4603033 166.34136877 -124.67004995 146.61976801 -124.6875 125.8125 C-124.68817474 125.09313263 -124.68884949 124.37376526 -124.68954468 123.63259888 C-124.67399018 113.21471995 -124.33928729 103.34775172 -121.4375 93.25 C-121.0971875 92.02410156 -120.756875 90.79820313 -120.40625 89.53515625 C-110.62222572 57.50569838 -88.47004898 29.98790248 -59.0625 13.9375 C-40.52886877 4.2271967 -20.80726801 0.01745005 0 0 Z " fill="#424242" transform="translate(124.4375,-0.25)"/>
<path d="M0 0 C-3.4869551 2.89248692 -7.3746361 4.69964805 -11.4375 6.625 C-23.30638297 12.42422979 -33.4591766 19.84830384 -43 29 C-44.02841772 29.94165544 -45.05707615 30.88304804 -46.0859375 31.82421875 C-67.81635217 52.13240919 -82.68152794 82.83882911 -84.18701172 112.71069336 C-84.25395937 116.06077902 -84.28143007 119.40293009 -84.26074219 122.75317383 C-84.25006548 124.79994695 -84.2606806 126.84583215 -84.2734375 128.89257812 C-84.28981101 141.7362499 -83.17028706 154.23791815 -78.875 166.4375 C-78.56860596 167.3251001 -78.26221191 168.2127002 -77.9465332 169.12719727 C-71.39955803 187.53715248 -61.49572415 202.89614963 -48 217 C-47.26652344 217.80824219 -46.53304687 218.61648437 -45.77734375 219.44921875 C-35.62229427 230.24849507 -22.82214272 237.77404514 -10 245 C-8.31415849 245.96732423 -6.64136438 246.95899052 -5 248 C-5 248.33 -5 248.66 -5 249 C-29.31652431 250.89070167 -55.59869865 237.91328927 -73.8125 222.5625 C-75.90396121 220.73892462 -77.9576971 218.87831739 -80 217 C-80.43634766 216.60490234 -80.43634766 216.60490234 -82.64453125 214.60546875 C-103.09550813 195.18509228 -117.84551202 165.92119727 -119.16113281 137.52172852 C-119.20708819 133.53509978 -119.24665638 129.54939837 -119.25 125.5625 C-119.25067474 124.84313263 -119.25134949 124.12376526 -119.25204468 123.38259888 C-119.23649018 112.96471995 -118.90178729 103.09775172 -116 93 C-115.6596875 91.77410156 -115.319375 90.54820313 -114.96875 89.28515625 C-105.18472572 57.25569838 -83.03254898 29.73790248 -53.625 13.6875 C-37.16875948 5.06560154 -18.5919256 -0.33667471 0 0 Z " fill="#969696" transform="translate(119,0)"/>
<path d="M0 0 C5.55007795 -0.09938156 11.09963018 -0.1717096 16.65039062 -0.21972656 C18.53589916 -0.23975767 20.42134623 -0.26699073 22.30664062 -0.30175781 C25.02749862 -0.35065272 27.74753056 -0.37305382 30.46875 -0.390625 C31.30241089 -0.41127014 32.13607178 -0.43191528 32.99499512 -0.45318604 C40.36753583 -0.45596953 45.36904741 1.8075395 51 6.5 C53.76668001 10.25815237 53.74985052 14.23250507 53.546875 18.765625 C52.20824623 26.68265804 48.33025414 33.98398592 41.84765625 38.828125 C30.75752524 45.86203473 20.74980936 46.27851525 8 46 C7.81824219 46.76183594 7.63648437 47.52367187 7.44921875 48.30859375 C6.24398003 53.25934358 5.01695487 58.13256056 3.3125 62.9375 C2.22760761 66.0728958 1.5933683 68.64528847 2 72 C2.165 72.33 2.165 72.33 3 74 C-5.25 74 -13.5 74 -22 74 C-20.68 71.69 -19.36 69.38 -18 67 C-17.11331202 64.54638878 -16.30252807 62.0642558 -15.5625 59.5625 C-15.13694509 58.14706735 -14.71115724 56.73170471 -14.28515625 55.31640625 C-14.07262207 54.59984863 -13.86008789 53.88329102 -13.64111328 53.14501953 C-12.62726648 49.75291825 -11.56214989 46.37722011 -10.5 43 C-10.08437567 41.6706541 -9.6690118 40.34122674 -9.25390625 39.01171875 C-8.19482004 35.62247726 -7.13441533 32.23365057 -6.07275391 28.84521484 C-5.65268007 27.50104313 -5.23435576 26.15632329 -4.81787109 24.81103516 C-3.83295576 21.63269526 -2.82214124 18.47091227 -1.76171875 15.31640625 C-1.38660156 14.18074219 -1.01148437 13.04507813 -0.625 11.875 C-0.28726563 10.88242188 0.05046875 9.88984375 0.3984375 8.8671875 C1.08541134 5.59290958 0.62116756 3.25929607 0 0 Z " fill="#FBFBFB" transform="translate(72,87)"/>
<path d="M0 0 C-0.66 3.3 -1.32 6.6 -2 10 C-3.32 9.34 -4.64 8.68 -6 8 C-18.03123488 2.47812671 -18.03123488 2.47812671 -24.92578125 4.58984375 C-35.3260349 8.97208655 -41.00600017 19.16224119 -45.25244141 29.10449219 C-49.20172049 39.11827494 -52.16259722 49.96054229 -48.75 60.5 C-47 64 -47 64 -45.3125 65.4375 C-41.89105107 66.26974433 -38.50476882 66.64952312 -35 67 C-34.91363281 66.45214844 -34.82726562 65.90429688 -34.73828125 65.33984375 C-33.51978435 58.46483828 -31.39304856 52.06287406 -29.0234375 45.515625 C-27.84633334 41.47213742 -27.06108777 37.87782445 -29 34 C-20.42 34 -11.84 34 -3 34 C-3.66 34.825 -3.66 34.825 -7 39 C-8.08984375 42.05859375 -8.08984375 42.05859375 -8.9375 45.4375 C-9.27652344 46.66210938 -9.61554688 47.88671875 -9.96484375 49.1484375 C-10.65288728 51.70847871 -11.31199912 54.27647773 -11.94140625 56.8515625 C-14.54892434 65.99230857 -14.54892434 65.99230857 -18.8125 68.953125 C-29.45051751 73.48992659 -41.77426697 75.00491549 -52.9375 71.5 C-59.58761543 68.71850842 -63.87887276 63.90713089 -66.9375 57.4375 C-70.68576143 45.61068752 -67.77956481 32.73478925 -62.75 21.8125 C-56.15964612 9.48970813 -45.18395776 2.18466919 -32 -2 C-21.24582889 -4.64446831 -10.49055861 -2.92759775 0 0 Z " fill="#FBFBFB" transform="translate(223,89)"/>
<path d="M0 0 C2.5625 2.4375 2.5625 2.4375 3.625 5.875 C3.54143897 10.63797895 2.36152621 12.6566 -0.98828125 15.97265625 C-9.26013514 23.4375 -9.26013514 23.4375 -14.4375 23.4375 C-13.65244099 25.56494999 -12.8592394 27.68939674 -12.0625 29.8125 C-11.62164062 30.99585938 -11.18078125 32.17921875 -10.7265625 33.3984375 C-9.4375 36.4375 -9.4375 36.4375 -7.4375 38.4375 C-7.1075 35.4675 -6.7775 32.4975 -6.4375 29.4375 C-3.4675 29.4375 -0.4975 29.4375 2.5625 29.4375 C2.11229057 35.29022256 -0.47589227 39.51970119 -3.4375 44.4375 C1.38331727 48.19398099 6.1862379 51.52535803 11.5625 54.4375 C11.5625 54.7675 11.5625 55.0975 11.5625 55.4375 C8.8322611 55.5458667 6.10635457 55.62496694 3.375 55.6875 C2.99053711 55.70425781 2.99053711 55.70425781 1.04492188 55.7890625 C-4.30177477 55.88085128 -6.28268733 54.96801439 -10.4375 51.4375 C-14.02891773 51.61011077 -16.88945063 53.00790368 -20.125 54.5 C-25.29536201 56.60358991 -29.89847631 57.40372002 -35.4375 56.4375 C-40.09452344 53.98197855 -43.75417974 51.48746079 -45.4375 46.4375 C-45.95916057 41.46889685 -46.0099051 37.58231021 -43.75 33.0625 C-39.07828393 27.75947094 -34.01564734 24.8671497 -27.4375 22.4375 C-26.7775 22.4375 -26.1175 22.4375 -25.4375 22.4375 C-25.540625 21.15875 -25.64375 19.88 -25.75 18.5625 C-25.75 12.70490349 -23.62070528 8.2731889 -20.4375 3.4375 C-14.70875251 -2.29124749 -7.36227329 -3.34648786 0 0 Z " fill="#F8F8F8" transform="translate(149.4375,105.5625)"/>
<path d="M0 0 C7.3015873 -0.36507937 7.3015873 -0.36507937 10.234375 1.16796875 C12.62753458 3.65113655 12.53592095 5.0875101 12.5 8.5 C12.19174623 16.72341504 10.31747978 23.98081831 4.5625 30.0625 C-0.46896116 34.52778824 -4.27430308 35.26375282 -11 35 C-9.24626848 27.21514301 -6.95837446 19.78227458 -4.20703125 12.29296875 C-2.71492778 8.22227871 -1.34958017 4.11977103 0 0 Z " fill="#5F5F5F" transform="translate(93,93)"/>
<path d="M0 0 C0.33773437 0.83144531 0.67546875 1.66289062 1.0234375 2.51953125 C1.46945313 3.60621094 1.91546875 4.69289062 2.375 5.8125 C2.81585938 6.89144531 3.25671875 7.97039062 3.7109375 9.08203125 C5 12 5 12 7 15 C7 15.99 7 16.98 7 18 C3.88178643 19.8159434 1.5349669 20.29622187 -2.0625 20.3125 C-2.91972656 20.32925781 -3.77695313 20.34601563 -4.66015625 20.36328125 C-7.45955667 19.9286498 -8.28107173 19.20087078 -10 17 C-11.43304064 14.13391871 -11.30644155 12.18699217 -11 9 C-8.36780244 4.20564016 -5.80308688 0 0 0 Z " fill="#484848" transform="translate(126,134)"/>
<path d="M0 0 C0.56147811 3.85013558 0.72225879 5.90107937 -1.453125 9.2109375 C-6.19719646 14.73239882 -6.19719646 14.73239882 -10 16 C-10.45189183 9.56054147 -9.69406417 6.32379836 -6 1 C-4 0 -4 0 0 0 Z " fill="#525252" transform="translate(144,108)"/>
</svg>
