<?xml version="1.0" encoding="UTF-8"?>
<!-- Generator: visioncortex VTracer 0.6.12 -->
<svg version="1.1" xmlns="http://www.w3.org/2000/svg" width="3840" height="2160">
<path d="M0 0 C1.05703125 0.71800781 2.1140625 1.43601562 3.203125 2.17578125 C11.83428151 8.09349607 19.56974947 14.63599998 27 22 C27.39445312 22.38800781 27.39445312 22.38800781 29.390625 24.3515625 C46.83720932 42.61399429 58.1973683 67.0207452 67.00830078 90.38867188 C68.45413402 94.19581916 69.955255 97.98072463 71.45019531 101.76879883 C74.57864852 109.70760642 77.64929445 117.665179 80.62597656 125.66210938 C86.16704148 140.52326048 91.88286343 155.32067485 97.81982422 170.02807617 C99.88263748 175.15647334 101.89734855 180.30213746 103.8828125 185.4609375 C104.13616867 186.1191449 104.38952484 186.77735229 104.65055847 187.45550537 C105.69582403 190.17196 106.74084866 192.88850714 107.78543091 195.60522461 C110.83310219 203.52281245 113.95056279 211.39680877 117.3125 219.1875 C119.92819217 225.25704366 122.24199458 231.36966406 124.375 237.625 C128.04334145 248.37736066 132.29200575 258.86846237 136.55078125 269.39794922 C139.27497861 276.1689748 141.95027945 282.95930866 144.625 289.75 C144.90429352 290.45864197 145.18358704 291.16728394 145.47134399 291.8973999 C149.12916184 301.18253787 152.73147987 310.48624984 156.26098633 319.82104492 C158.6936002 326.23942771 161.22468526 332.61466767 163.78588867 338.98266602 C166.76416036 346.39260598 169.70093242 353.81851177 172.625 361.25 C173.0681958 362.37349854 173.5113916 363.49699707 173.96801758 364.65454102 C176.29052467 370.56360684 178.5654784 376.4876422 180.78125 382.4375 C184.31670313 391.91988149 188.00996726 401.34006588 191.70361328 410.76171875 C192.86763636 413.73121489 194.02965728 416.70148853 195.19140625 419.671875 C198.82245018 428.94742815 202.47853786 438.21157484 206.1953125 447.453125 C208.75351092 453.81868779 211.22660515 460.20714081 213.61158752 466.63937378 C217.03285883 475.83048858 220.66521873 484.94054381 224.25900269 494.06518555 C235.30606292 522.11566116 235.30606292 522.11566116 240.0234375 534.5078125 C240.32187057 535.29175385 240.62030365 536.07569519 240.92778015 536.88339233 C242.27616354 540.43074001 243.61850235 543.98026002 244.95336914 547.53271484 C247.39858055 554.01259241 250.0057841 560.36234207 252.92553711 566.64404297 C254.29585851 569.64872407 255.44570517 572.70537776 256.5625 575.8125 C271.71358187 616.80618189 271.71358187 616.80618189 281 630 C281.73863281 631.06734375 282.47726562 632.1346875 283.23828125 633.234375 C290.80893069 643.74698665 298.81699693 651.46093103 310 658 C310.31388672 658.20044922 310.31388672 658.20044922 311.90234375 659.21484375 C316.63412398 662.16524789 321.65737065 663.59498692 327 665 C327.62648438 665.185625 328.25296875 665.37125 328.8984375 665.5625 C343.37366422 668.5759301 356.08312915 663.66898255 368.125 656.09765625 C371 654 371 654 373.75 651.24609375 C376 649 376 649 378 649 C378.66 647.68 379.32 646.36 380 645 C380.66 645 381.32 645 382 645 C382.24105469 644.47792969 382.48210938 643.95585938 382.73046875 643.41796875 C384.39292227 640.25163419 386.35405627 637.29994973 388.3125 634.3125 C396.94714082 620.969769 403.99613627 607.14041299 408.6640625 591.92578125 C409.71719609 588.64999999 411.01818008 585.51188815 412.359375 582.34375 C415.02218947 576.03710997 417.35227956 569.64335032 419.625 563.1875 C420.27953641 561.34243759 420.93407374 559.4973755 421.58865356 557.65232849 C422.50021539 555.08026782 423.4087308 552.50713593 424.31713867 549.93395996 C431.3269719 530.0811198 438.38575712 510.24790625 445.63304138 490.48031616 C447.3018094 485.92418173 448.95148527 481.3615099 450.5916748 476.79501343 C451.75019498 473.57665657 452.91914631 470.36214876 454.09014893 467.14831543 C454.64898799 465.60781475 455.20357209 464.06576294 455.75360107 462.52209473 C456.52084375 460.37103405 457.30354282 458.22618591 458.08984375 456.08203125 C458.53191162 454.85718018 458.97397949 453.6323291 459.42944336 452.37036133 C461.46329146 448.00579222 463.93707013 444.40506641 467.984375 441.6484375 C473.56409588 439.85341101 480.00445693 440.19250431 485.375 442.5 C489.56548991 444.94014124 492.38109845 448.43127302 494 453 C494.80496483 459.63257479 492.45822279 464.73724905 490 470.75 C489.0766532 473.07832895 488.15630255 475.4078474 487.23828125 477.73828125 C487.11244911 478.05631966 487.11244911 478.05631966 486.47566223 479.66578674 C482.91129958 488.70516944 479.56429684 497.82686004 476.1875 506.9375 C475.49249154 508.8091345 474.79734124 510.68071634 474.10205078 512.55224609 C471.19608177 520.37625734 468.29533134 528.20220088 465.39582825 536.02861023 C464.0561632 539.64430013 462.71569626 543.25969237 461.375 546.875 C461.11540497 547.57533356 460.85580994 548.27566711 460.58834839 548.9972229 C456.06756863 561.18845852 451.4648825 573.34783087 446.84667969 585.50244141 C442.89876395 595.8986195 439.05518217 606.32353323 435.33544922 616.80395508 C432.09203647 625.87995237 428.59417095 634.85083192 425.08795166 643.82751465 C421.69995769 652.5087016 418.44897458 661.21835963 415.42333984 670.03344727 C413.25523903 676.33290516 410.92140567 682.5564177 408.52880859 688.77368164 C405.89090707 695.63773397 403.30424464 702.51982486 400.73338318 709.40917969 C397.49675244 718.0814311 394.23819906 726.74535643 390.97503662 735.40765381 C390.0178506 737.9525403 389.06439849 740.49879726 388.11181641 743.04541016 C369.92158431 791.60633832 369.92158431 791.60633832 352 809 C351.63390625 809.35900391 351.63390625 809.35900391 349.78125 811.17578125 C343.39258214 817.15968762 336.61025225 821.70212373 329 826 C328.08992188 826.53496094 327.17984375 827.06992188 326.2421875 827.62109375 C299.87720945 842.08051904 267.29319168 842.86761874 238.8125 835.125 C230.13506051 832.51987352 222.72317332 828.94952529 214.9375 824.375 C214.25695557 823.97837158 213.57641113 823.58174316 212.87524414 823.1730957 C211.21390141 822.17331769 209.60154117 821.09301492 208 820 C208 819.34 208 818.68 208 818 C207.41734375 817.73316406 206.8346875 817.46632813 206.234375 817.19140625 C196.26328511 811.87465377 188.91434299 801.61466278 182.75 792.4375 C182.33766113 791.82455078 181.92532227 791.21160156 181.50048828 790.58007812 C176.15523361 782.43534119 172.64680564 773.77619438 169.19915771 764.69296265 C167.88357379 761.22899928 166.55383313 757.77049599 165.22265625 754.3125 C164.95259766 753.61078171 164.68253906 752.90906342 164.40429688 752.18608093 C161.81618075 745.48353746 159.10853732 738.83196291 156.375 732.1875 C149.43230722 715.26947505 142.93126907 698.19133386 136.53857422 681.05932617 C131.85205488 668.50184812 127.06218525 655.99945689 122.04296875 643.5703125 C117.7233569 632.86060676 113.49547418 622.11424841 109.25 611.375 C107.63049326 607.2785331 106.01075692 603.18215719 104.390625 599.0859375 C104.00410263 598.10856628 103.61758026 597.13119507 103.21934509 596.12420654 C101.1245168 590.83045977 99.01882255 585.54137164 96.8984375 580.2578125 C93.33329814 571.36096784 89.85538124 562.43026925 86.375 553.5 C85.66643568 551.68334448 84.95785802 549.86669416 84.24926758 548.05004883 C79.80004597 536.63927151 75.37138423 525.22067546 70.95675659 513.79647827 C66.13815832 501.32949123 61.25675035 488.88768336 56.35888672 476.45166016 C54.06922202 470.63576373 51.78495102 464.81774954 49.5 459 C48.58724456 456.67708138 47.67448414 454.35416471 46.76171875 452.03125 C44.88762821 447.26107999 43.01546015 442.4901609 41.14453125 437.71875 C40.67015625 436.50960938 40.19578125 435.30046875 39.70703125 434.0546875 C38.82237847 431.79969023 37.9382061 429.54450439 37.0546875 427.2890625 C34.79112893 421.52086651 32.50583984 415.76234861 30.19676208 410.01225281 C25.98735707 399.5259218 21.87756817 389.00384313 17.81719971 378.45898438 C16.71573121 375.59850502 15.61269232 372.73863529 14.50927734 369.87890625 C13.02554202 366.03323282 11.54229594 362.18737143 10.05957031 358.34130859 C-1.25747018 328.98826603 -12.67538895 299.6776041 -24.41162109 270.48925781 C-35.04235462 244.04715808 -35.04235462 244.04715808 -39.390625 232.28125 C-44.90274929 217.49405791 -50.79856194 202.83924884 -56.8125 188.25 C-59.5073679 181.71189954 -62.11194423 175.1613395 -64.55639648 168.52514648 C-67.52301084 160.5085931 -70.6944819 152.57182186 -73.83154297 144.62084961 C-76.60606451 137.57837545 -79.33328062 130.52140785 -82 123.4375 C-85.48308528 114.19951522 -89.19680011 105.06079672 -92.96875 95.93725586 C-96.2164001 88.04933351 -99.241878 80.09496239 -102.21520996 72.10122681 C-104.35769989 66.36484249 -106.54769676 60.64627405 -108.73217773 54.92578125 C-109.28833913 53.46841271 -109.84367015 52.01072703 -110.39819336 50.55273438 C-113.39583232 42.67132131 -116.45566673 34.83500722 -119.73364258 27.06494141 C-122.57538996 20.18711286 -125.1872955 13.21467843 -127.84594727 6.2644043 C-128.61534752 4.25492035 -129.38713068 2.24637315 -130.16015625 0.23828125 C-130.40520905 -0.40043915 -130.65026184 -1.03915955 -130.90274048 -1.69723511 C-132.27527407 -5.24224659 -133.75408526 -8.70492014 -135.37109375 -12.14453125 C-136.78509571 -15.21713309 -137.44393232 -17.55952454 -137 -21 C-90.73863469 -31.23481533 -39.66509929 -28.32295488 0 0 Z " fill="#A2A2A2" transform="translate(601,551)"/>
<path d="M0 0 C2.42759488 2.04319683 4.92249452 3.94275878 7.46899414 5.83349609 C22.79790794 17.36252324 36.63173697 31.67261841 47.73828125 47.3046875 C48.27541748 48.05476074 48.81255371 48.80483398 49.3659668 49.57763672 C80.06503782 92.87238699 90.60641126 138.90174562 91.72265625 191.1015625 C91.75069336 192.39416992 91.77873047 193.68677734 91.80761719 195.01855469 C91.75026199 197.73686808 91.45001563 199.72777259 90.73828125 202.3046875 C82.48463178 203.22077253 74.32801662 203.45309495 66.0282135 203.45185852 C64.67275989 203.45516571 63.31730725 203.45889304 61.96185583 203.463 C58.26611494 203.47292854 54.57039028 203.47672176 50.87463796 203.47938931 C46.87811887 203.48331904 42.88161232 203.49289435 38.88510132 203.50160217 C29.25667004 203.52127703 19.62823785 203.53141483 9.99979153 203.54032996 C5.46215015 203.54472186 0.92450991 203.55008578 -3.61313057 203.55531883 C-18.69689536 203.57231127 -33.78065945 203.58680999 -48.86443233 203.59406757 C-52.77005451 203.5959773 -56.67567668 203.59789767 -60.58129883 203.59985352 C-61.5519601 203.60033726 -62.52262137 203.600821 -63.52269662 203.6013194 C-79.28148943 203.60963755 -95.04020679 203.63501329 -110.79896658 203.66743419 C-126.98563329 203.70046413 -143.17226152 203.71851207 -159.35896212 203.72171181 C-168.44467241 203.72387913 -177.53027218 203.73266185 -186.61594963 203.75817299 C-194.34396332 203.77982323 -202.07183956 203.78795797 -209.79988014 203.77820621 C-213.74375358 203.77364688 -217.68734301 203.7756424 -221.6311779 203.79496765 C-225.23881913 203.81249384 -228.84596693 203.81168866 -232.45361263 203.79607036 C-234.38178646 203.79254219 -236.30996485 203.80879797 -238.23806804 203.82567483 C-239.3783189 203.81709394 -240.51856976 203.80851305 -241.69337368 203.79967213 C-242.18630703 203.80016053 -242.18630703 203.80016053 -244.68084854 203.80263215 C-248.85351068 202.99757237 -250.54639764 200.24993325 -253.01171875 196.9921875 C-254.66905232 193.42892032 -254.72532476 191.21222386 -254.26171875 187.3046875 C-252.78855636 183.48691453 -251.16609003 180.20905878 -248.26171875 177.3046875 C-237.90341315 175.58370061 -226.91722029 175.99391391 -216.42578125 175.75976562 C-215.5366164 175.73896722 -214.64745155 175.71816881 -213.73134232 175.69674015 C-194.8960073 175.25916959 -176.06279498 175.10848134 -157.22305679 175.03429604 C-152.76742019 175.0155894 -148.31181325 174.99140163 -143.85620117 174.96765137 C-130.73788172 174.89866595 -117.61952624 174.8378914 -104.50115967 174.77862549 C-94.180983 174.73189536 -83.86082737 174.6829263 -73.54069519 174.62713861 C-68.26481234 174.59887396 -62.98893574 174.57526071 -57.71301556 174.55521393 C-54.46473552 174.54188387 -51.21648699 174.52447814 -47.96823311 174.50590324 C-46.45927277 174.49812095 -44.95030246 174.49206295 -43.44132805 174.48781013 C-41.39226352 174.48180459 -39.34322145 174.4691914 -37.29418945 174.45617676 C-36.14634476 174.45102303 -34.99850006 174.44586929 -33.81587219 174.44055939 C-31.26171875 174.3046875 -31.26171875 174.3046875 -30.26171875 173.3046875 C-30.15132432 170.78502972 -30.10851075 168.30125404 -30.12109375 165.78125 C-30.12365173 165.01753082 -30.12620972 164.25381165 -30.12884521 163.46694946 C-30.20107342 155.50128288 -30.77475269 147.60798294 -31.51171875 139.6796875 C-31.54517395 139.31212845 -31.54517395 139.31212845 -31.71447754 137.45205688 C-32.89813489 124.59529829 -34.56815234 111.94196855 -37.26171875 99.3046875 C-37.49342773 98.19883301 -37.72513672 97.09297852 -37.96386719 95.95361328 C-46.8793782 54.22741537 -62.96537439 10.62380313 -100.26171875 -13.6953125 C-100.72255859 -13.99759766 -100.72255859 -13.99759766 -103.0546875 -15.52734375 C-124.61126668 -28.88020454 -150.71735781 -34.36524324 -175.546875 -28.66796875 C-197.1320471 -23.01633063 -215.86328426 -13.80919375 -232.32421875 1.4296875 C-232.93128662 1.99115479 -233.53835449 2.55262207 -234.16381836 3.13110352 C-237.92685206 6.73004992 -241.03335023 10.51423077 -243.99780273 14.79638672 C-244.41489502 15.29412598 -244.8319873 15.79186523 -245.26171875 16.3046875 C-245.92171875 16.3046875 -246.58171875 16.3046875 -247.26171875 16.3046875 C-247.5246875 16.8615625 -247.78765625 17.4184375 -248.05859375 17.9921875 C-249.39043707 20.55209414 -250.92101621 22.89713771 -252.51171875 25.3046875 C-255.57817131 30.09088252 -258.21465504 34.94772406 -260.6796875 40.06640625 C-261.76098914 42.27973726 -262.89129895 44.46961572 -264.0625 46.63671875 C-275.2231989 67.40510147 -281.78489367 90.25945792 -286.26171875 113.3046875 C-286.45991211 114.32014648 -286.65810547 115.33560547 -286.86230469 116.38183594 C-302.38482206 197.8685081 -298.48676577 303.8110993 -250.63818359 374.328125 C-247.72305999 378.51415563 -244.61045431 382.4603674 -241.26171875 386.3046875 C-240.64167969 387.05621094 -240.02164062 387.80773438 -239.3828125 388.58203125 C-223.74035998 407.06856604 -200.90593533 419.62151813 -178.26171875 427.3046875 C-177.20082031 427.67464844 -176.13992188 428.04460937 -175.046875 428.42578125 C-136.57387801 440.64773456 -93.48972826 438.73363032 -54.26171875 431.3046875 C-53.88523193 431.23459473 -53.88523193 431.23459473 -51.97998047 430.87988281 C-31.87790764 427.04001817 -12.84926753 419.63300607 5.11328125 409.8671875 C10.78362501 406.9688363 16.3658691 405.8440312 22.73828125 406.3046875 C25.56308453 407.38289393 26.47935992 407.87315195 28.05078125 410.4921875 C29.22297095 415.28750898 28.41352405 418.89548513 26.30078125 423.3046875 C15.32777413 436.15113486 -4.72255251 443.84512863 -20.28883362 449.57730103 C-21.58068781 450.05359701 -22.87130351 450.53326893 -24.1605072 451.01669312 C-34.82169662 455.00452125 -45.44952921 458.04510181 -56.57421875 460.4296875 C-56.96042892 460.51401031 -56.96042892 460.51401031 -58.91488647 460.94073486 C-73.60628286 464.13917174 -88.31695001 466.59817533 -103.26171875 468.3046875 C-104.24849609 468.42038086 -105.23527344 468.53607422 -106.25195312 468.65527344 C-140.77893185 472.57298112 -175.1124411 470.31108825 -208.98828125 463.00683594 C-211.65858364 462.43405926 -214.33052688 461.89328396 -217.01171875 461.375 C-243.03130938 456.11652163 -268.50869779 444.79642857 -291.26171875 431.3046875 C-293.19382865 430.23241709 -295.13105235 429.16928865 -297.07421875 428.1171875 C-301.82206767 425.54602302 -306.54681494 422.93572024 -311.26171875 420.3046875 C-311.26171875 419.6446875 -311.26171875 418.9846875 -311.26171875 418.3046875 C-311.6071875 418.18544922 -311.6071875 418.18544922 -313.35546875 417.58203125 C-316.80278144 416.06688172 -319.72997523 414.06726267 -322.76171875 411.8671875 C-323.06392334 411.64994019 -323.06392334 411.64994019 -324.59326172 410.55053711 C-330.12887789 406.51280201 -335.34746087 402.14138879 -340.51953125 397.65234375 C-343.26171875 395.3046875 -343.26171875 395.3046875 -345.62890625 393.61328125 C-346.16773438 393.18144531 -346.7065625 392.74960938 -347.26171875 392.3046875 C-347.26171875 391.6446875 -347.26171875 390.9846875 -347.26171875 390.3046875 C-347.92171875 390.3046875 -348.58171875 390.3046875 -349.26171875 390.3046875 C-349.26171875 389.6446875 -349.26171875 388.9846875 -349.26171875 388.3046875 C-349.92171875 388.3046875 -350.58171875 388.3046875 -351.26171875 388.3046875 C-353.38671875 386.4296875 -353.38671875 386.4296875 -355.26171875 384.3046875 C-355.26171875 383.6446875 -355.26171875 382.9846875 -355.26171875 382.3046875 C-355.92171875 382.3046875 -356.58171875 382.3046875 -357.26171875 382.3046875 C-357.26171875 381.6446875 -357.26171875 380.9846875 -357.26171875 380.3046875 C-357.92171875 380.3046875 -358.58171875 380.3046875 -359.26171875 380.3046875 C-359.26171875 379.6446875 -359.26171875 378.9846875 -359.26171875 378.3046875 C-359.92171875 378.3046875 -360.58171875 378.3046875 -361.26171875 378.3046875 C-362.69984548 376.73527949 -364.06201925 375.09594715 -365.38671875 373.4296875 C-366.19496094 372.41648437 -367.00320313 371.40328125 -367.8359375 370.359375 C-368.63644531 369.35132813 -369.43695312 368.34328125 -370.26171875 367.3046875 C-370.92816406 366.50289062 -371.59460937 365.70109375 -372.28125 364.875 C-381.59547055 353.60687982 -388.85307958 341.5621042 -395.57421875 328.6171875 C-396.16090332 327.48933838 -396.74758789 326.36148926 -397.35205078 325.19946289 C-403.10380891 313.95455408 -407.71580096 302.67779634 -411.26171875 290.5546875 C-411.60348145 289.39090576 -411.94524414 288.22712402 -412.29736328 287.02807617 C-415.58702665 275.57480032 -418.18919792 264.03703544 -420.26171875 252.3046875 C-420.38772461 251.5940918 -420.51373047 250.88349609 -420.64355469 250.15136719 C-427.67324093 208.53645899 -422.99670776 164.27498182 -410.26171875 124.3046875 C-410.14256104 123.92666992 -410.14256104 123.92666992 -409.53955078 122.01367188 C-406.32221046 111.9531348 -402.23513035 102.58800671 -397.29394531 93.25878906 C-396.264795 91.31051114 -395.25768898 89.35207336 -394.25390625 87.390625 C-390.08858214 79.32235136 -385.47899614 71.74967483 -380.26171875 64.3046875 C-379.50477527 63.19560794 -378.74827951 62.08622271 -377.9921875 60.9765625 C-363.13973825 39.41429372 -344.38331283 19.76078601 -323.26171875 4.3046875 C-322.75576172 3.9128125 -322.75576172 3.9128125 -320.1953125 1.9296875 C-313.18231857 -3.48321003 -305.91276701 -8.24034598 -298.26171875 -12.6953125 C-297.57174805 -13.10507324 -296.88177734 -13.51483398 -296.17089844 -13.93701172 C-260.34642944 -35.09745694 -220.47482344 -45.9425502 -179.26171875 -49.6953125 C-178.90456787 -49.73060059 -178.90456787 -49.73060059 -177.09716797 -49.90917969 C-117.14459965 -55.82462496 -46.59804027 -39.9017293 0 0 Z " fill="#A2A2A2" transform="translate(1595.26171875,920.6953125)"/>
<path d="M0 0 C1.90673644 2.37040932 2.34738867 3.93735583 2.57421875 6.95703125 C0.24088542 13.62369792 0.24088542 13.62369792 -2.42578125 14.95703125 C-11.87085936 15.8003418 -19.38741594 11.55463647 -27.65307617 7.40478516 C-76.83237923 -17.16344889 -130.77524442 -17.94833818 -182.42578125 -1.04296875 C-206.16113029 7.38375808 -226.60191976 23.12641724 -237.89453125 45.921875 C-242.57234031 57.03167151 -243.22403359 70.58922353 -239.609375 82.125 C-236.7051952 89.07394506 -232.90598628 95.88793871 -228.171875 101.74609375 C-226.42578125 103.95703125 -226.42578125 103.95703125 -226.42578125 105.95703125 C-225.76578125 105.95703125 -225.10578125 105.95703125 -224.42578125 105.95703125 C-224.42578125 106.61703125 -224.42578125 107.27703125 -224.42578125 107.95703125 C-224.13316406 108.08916016 -224.13316406 108.08916016 -222.65234375 108.7578125 C-220.34350914 110.00134272 -218.71714683 111.362719 -216.80078125 113.14453125 C-203.02951722 125.37724746 -186.25998216 133.26722194 -169.66845703 140.91796875 C-167.60047668 141.87609246 -165.54092859 142.84967138 -163.484375 143.83203125 C-156.21747637 147.29209625 -148.87939758 150.45449682 -141.41845703 153.46875 C-136.8251422 155.33779042 -132.41627485 157.41440011 -128.01708984 159.70703125 C-125.24204211 161.04566366 -122.44193347 162.1319418 -119.5546875 163.20703125 C-112.14245648 166.02682255 -104.87622425 169.15336412 -97.61328125 172.33203125 C-96.27700204 172.91526982 -94.94065701 173.49835762 -93.60424805 174.08129883 C-91.63621136 174.93986436 -89.66829478 175.79869484 -87.70094299 176.65882874 C-84.33856501 178.1279324 -80.97080306 179.58200768 -77.58984375 181.0078125 C-68.01957075 185.05901804 -58.89598423 189.7912307 -49.75 194.71484375 C-47.55714197 195.88682502 -45.35429072 197.03605373 -43.14453125 198.17578125 C-25.94705475 207.06859675 -9.57165949 216.85712794 5.57421875 228.95703125 C5.86699707 229.18592041 5.86699707 229.18592041 7.34863281 230.34423828 C8.79624477 231.50122797 10.19090087 232.72389008 11.57421875 233.95703125 C11.57421875 234.61703125 11.57421875 235.27703125 11.57421875 235.95703125 C11.85265625 236.07046875 11.85265625 236.07046875 13.26171875 236.64453125 C16.23581463 238.33253161 18.2943074 240.42379642 20.57421875 242.95703125 C20.57421875 243.61703125 20.57421875 244.27703125 20.57421875 244.95703125 C21.56421875 245.28703125 22.55421875 245.61703125 23.57421875 245.95703125 C36.5103934 258.71663455 47.32235602 278.36683774 51.57421875 295.95703125 C51.75033691 296.65554199 51.92645508 297.35405273 52.10791016 298.07373047 C55.24697034 310.79128769 56.3116878 322.88864588 55.57421875 335.95703125 C55.53554687 336.67955078 55.496875 337.40207031 55.45703125 338.14648438 C53.61728549 367.33892083 40.49797556 393.13711688 21.57421875 414.95703125 C20.84332031 415.82199219 20.11242188 416.68695312 19.359375 417.578125 C14.25213325 423.47523894 8.80886984 428.28965433 2.57421875 432.95703125 C1.48506304 433.80780824 0.39655715 434.65941757 -0.69140625 435.51171875 C-14.44434403 446.11911866 -29.55405267 454.23902379 -45.7265625 460.51953125 C-48.0584056 461.42567514 -50.36961151 462.3888565 -52.64453125 463.4296875 C-57.78269665 465.64898221 -63.21565611 466.9617845 -68.61328125 468.39453125 C-69.18957275 468.54809082 -69.18957275 468.54809082 -72.10595703 469.32519531 C-82.14771258 471.95832352 -92.20444481 474.15739532 -102.42578125 475.95703125 C-103.1729541 476.09592773 -103.92012695 476.23482422 -104.68994141 476.37792969 C-149.40693281 484.60686294 -200.96584774 484.52604921 -244.41503906 470.58056641 C-246.43683572 469.95360324 -248.46681293 469.39025862 -250.51171875 468.84375 C-279.76333434 460.94974527 -317.19871178 445.47141881 -337.42578125 421.95703125 C-339.90705522 417.55737346 -341.02954564 413.79746915 -340.12109375 408.8203125 C-338.84850001 405.41004727 -336.54188098 403.56622061 -333.42578125 401.95703125 C-327.8020415 400.11477168 -324.90847938 400.90190977 -319.61328125 403.45703125 C-314.69046047 406.12484276 -310.01578499 409.10993829 -305.33203125 412.171875 C-301.0298339 414.81448816 -296.5248017 416.98283708 -291.98828125 419.19140625 C-288.4549221 420.94258864 -285.00448638 422.80429555 -281.55078125 424.70703125 C-277.59497572 426.8543322 -273.76172622 428.76575376 -269.50390625 430.21484375 C-266.81813006 431.17404953 -264.22991176 432.32315803 -261.61328125 433.45703125 C-256.87113892 435.45435223 -252.18939892 436.97338798 -247.19140625 438.18359375 C-244.42578125 438.95703125 -244.42578125 438.95703125 -240.8203125 440.359375 C-195.33146496 457.69048752 -137.50770392 457.6834387 -92.86328125 438.01953125 C-65.73528407 425.57603689 -65.73528407 425.57603689 -61.42578125 416.95703125 C-60.76578125 416.95703125 -60.10578125 416.95703125 -59.42578125 416.95703125 C-59.17441406 416.40273437 -58.92304688 415.8484375 -58.6640625 415.27734375 C-57.21890428 412.56938167 -55.47417286 410.27289482 -53.61328125 407.83203125 C-44.88148607 395.88908676 -40.23204561 384.17479813 -42.22021484 369.31958008 C-44.0575578 357.88423425 -48.71765743 345.54263226 -57.13671875 337.27734375 C-58.42578125 335.95703125 -58.42578125 335.95703125 -58.42578125 333.95703125 C-58.98523437 333.72113281 -59.5446875 333.48523437 -60.12109375 333.2421875 C-62.96803257 331.65465721 -64.96205386 329.665727 -67.30078125 327.39453125 C-76.25196647 319.12454437 -86.44177778 313.17404005 -97.42578125 307.95703125 C-99.27173116 307.03484764 -101.11270988 306.10311826 -102.95385742 305.17138672 C-106.43509673 303.41426533 -109.92943116 301.68384701 -113.42578125 299.95703125 C-114.04710938 299.64926758 -114.6684375 299.34150391 -115.30859375 299.02441406 C-133.9174514 289.86846017 -153.2857791 282.22378582 -172.515625 274.48120117 C-181.51183045 270.85653487 -190.32718013 267.2060148 -198.91796875 262.6953125 C-203.50231199 260.42356112 -208.20499334 258.48787667 -212.92578125 256.51953125 C-220.31152874 253.42122557 -227.17013871 250.03036155 -234.046875 245.9140625 C-237.72379851 243.78442241 -241.47790953 241.92992142 -245.30078125 240.08203125 C-263.05723641 231.37918663 -282.10040051 219.68405457 -296.42578125 205.95703125 C-296.42578125 205.29703125 -296.42578125 204.63703125 -296.42578125 203.95703125 C-297.74578125 203.29703125 -299.06578125 202.63703125 -300.42578125 201.95703125 C-300.42578125 201.29703125 -300.42578125 200.63703125 -300.42578125 199.95703125 C-300.99941406 199.72628906 -301.57304687 199.49554687 -302.1640625 199.2578125 C-319.61913766 189.21888326 -331.25451761 158.93169317 -336.359375 140.60546875 C-344.18313574 108.0376609 -337.53229313 72.51154815 -320.24023438 44.00244141 C-317.87180854 40.4508148 -315.19386549 37.20034411 -312.42578125 33.95703125 C-311.70777344 33.04179688 -310.98976563 32.1265625 -310.25 31.18359375 C-299.28601162 17.27899748 -286.62814644 6.30075514 -271.67578125 -3.10546875 C-270.7113208 -3.71398682 -269.74686035 -4.32250488 -268.75317383 -4.94946289 C-256.2377541 -12.75785306 -243.15080928 -18.70684233 -229.42578125 -24.04296875 C-228.74676758 -24.30996582 -228.06775391 -24.57696289 -227.36816406 -24.85205078 C-209.24006492 -31.89992755 -190.36024498 -35.50519742 -171.08886719 -37.734375 C-169.36455096 -37.93418575 -167.64113604 -38.14200461 -165.91894531 -38.359375 C-112.41386917 -45.08743073 -42.23543865 -37.08287128 0 0 Z " fill="#A2A2A2" transform="translate(3276.42578125,910.04296875)"/>
<path d="M0 0 C14.52 0 29.04 0 44 0 C45.26902506 2.53805012 44.84893759 3.37826663 44.18310547 6.10058594 C43.97894012 6.95038025 43.77477478 7.80017456 43.56442261 8.67572021 C43.33433502 9.60257629 43.10424744 10.52943237 42.8671875 11.484375 C42.63347443 12.45038635 42.39976135 13.41639771 42.15896606 14.41168213 C41.40419217 17.52608927 40.6399726 20.63808376 39.875 23.75 C38.89062078 27.78582545 37.90976782 31.82250362 36.9296875 35.859375 C36.68700134 36.85795532 36.44431519 37.85653564 36.1942749 38.88537598 C34.46477398 46.02332285 32.77638544 53.16989628 31.1328125 60.328125 C30.91704559 61.25848572 30.70127869 62.18884644 30.47897339 63.1473999 C30.28369049 64.00529114 30.08840759 64.86318237 29.88720703 65.74707031 C29.71512726 66.49869446 29.54304749 67.2503186 29.36575317 68.02471924 C29 70 29 70 29 73 C29.56962967 72.98525131 30.13925934 72.97050262 30.72615051 72.95530701 C36.64679535 72.80305859 42.56758893 72.65826235 48.48852539 72.51782227 C50.69918458 72.46440274 52.90979846 72.40907342 55.12036133 72.35180664 C58.29498526 72.26989465 61.46970794 72.19481789 64.64453125 72.12109375 C65.63524124 72.09405869 66.62595123 72.06702362 67.64668274 72.03916931 C68.56741074 72.01907303 69.48813873 71.99897675 70.43676758 71.97827148 C71.2472908 71.95828598 72.05781403 71.93830048 72.89289856 71.91770935 C75 72 75 72 78 73 C76.80398501 80.99441599 74.73311633 88.397691 72 96 C75.69589986 95.38966791 77.82649724 93.78795868 80.75 91.5 C99.50982224 77.56770535 121.46944565 68.57697521 145 68 C145.67321289 67.97953613 146.34642578 67.95907227 147.04003906 67.93798828 C170.94666765 67.2729993 195.01586468 72.27481528 213.8828125 87.90234375 C224.93416376 98.85174528 232.13227534 111.98619609 236 127 C236.17877686 127.67135986 236.35755371 128.34271973 236.54174805 129.03442383 C237.98906648 134.87462768 238.34890721 140.43298773 238.3125 146.4375 C238.30831055 147.39325928 238.30412109 148.34901855 238.29980469 149.33374023 C238.08861858 162.8597612 236.6914454 180.46283189 229 192 C226.36444664 192.36914349 226.36444664 192.36914349 222.95101929 192.36076355 C221.66090439 192.36488754 220.37078949 192.36901154 219.0415802 192.3732605 C217.60372718 192.36264231 216.16587625 192.35173787 214.72802734 192.34057617 C213.22036252 192.33973034 211.71269645 192.34020418 210.20503235 192.34190369 C206.10393439 192.3427668 202.00309799 192.32509018 197.90206099 192.30418181 C193.61926049 192.28546747 189.33645445 192.28366872 185.05361938 192.28010559 C176.93982985 192.27076967 168.82616113 192.24613503 160.71242487 192.21605712 C151.47677922 192.18256116 142.2411279 192.16603921 133.00543666 192.15097082 C114.00355586 192.11958676 95.00178763 192.0667963 76 192 C75.89119499 204.92393549 79.63444805 216.80072727 87.1875 227.375 C94.54690927 234.24378199 103.29958966 237.06825639 113 239 C113.78632813 239.18433594 114.57265625 239.36867188 115.3828125 239.55859375 C131.3473064 242.25111287 148.74559374 238.79038371 162.125 229.6875 C168.50745665 225.0010106 174.07187779 220.20578352 179 214 C179.99 213.67 180.98 213.34 182 213 C182.33 213.33 182.66 213.66 183 214 C185.72743784 214.58752695 188.44836066 215.12422626 191.19140625 215.62890625 C192.01124496 215.78286362 192.83108368 215.93682098 193.67576599 216.09544373 C196.30400732 216.58812658 198.93322504 217.07536649 201.5625 217.5625 C203.34056155 217.89482528 205.11855729 218.22750295 206.89648438 218.56054688 C211.26356859 219.37779436 215.63153622 220.19016057 220 221 C217.95223225 234.57920199 205.39872644 245.78776074 195 254 C191.44131307 256.53472512 187.76996443 258.79401569 184 261 C183.45021484 261.33064453 183.45021484 261.33064453 180.66796875 263.00390625 C153.04819064 279.04881181 118.99872513 280.77225547 88.49609375 273.12109375 C78.21429602 270.21985448 68.30847802 265.79784566 60 259 C60 258.34 60 257.68 60 257 C59.71511719 256.88140625 59.71511719 256.88140625 58.2734375 256.28125 C44.48651538 248.51130076 38.41856509 230.17807867 34 216 C32.92906669 211.98645636 32.34637901 208.13675508 32 204 C31.93586914 203.28263672 31.87173828 202.56527344 31.80566406 201.82617188 C30.35892388 184.78371096 31.51046673 169.28802307 37 153 C37.21140625 152.36739258 37.4228125 151.73478516 37.640625 151.08300781 C41.47444973 139.77656831 46.36068234 128.95897649 53 119 C53.66 119 54.32 119 55 119 C55.12375 118.7421875 55.12375 118.7421875 55.75 117.4375 C57.39559551 114.22858875 59.20445288 111.12760951 61 108 C56.30436582 107.97511283 51.60877081 107.95705204 46.91308594 107.94506836 C45.31867808 107.94006769 43.72427475 107.93326499 42.12988281 107.92456055 C39.82616046 107.9123067 37.52249922 107.9067289 35.21875 107.90234375 C34.51633179 107.89718246 33.81391357 107.89202118 33.09020996 107.88670349 C28.31279059 107.88617292 23.73121306 108.32974482 19 109 C16.30972058 119.87431395 13.62268793 130.74942783 10.9375 141.625 C10.73581333 142.4417646 10.53412666 143.25852921 10.32632828 144.10004425 C5.72894093 162.71956475 1.143519 181.34174434 -3.359375 199.984375 C-3.52943495 200.68833279 -3.6994949 201.39229057 -3.87470818 202.11758041 C-5.63464546 209.40477869 -7.38921872 216.69324587 -9.13891602 223.98291016 C-11.80157901 235.05677424 -14.48282689 246.11826674 -17.45320129 257.11434937 C-18.52582731 261.09809147 -19.47175668 265.07346317 -20.25 269.125 C-21 273 -21 273 -22 274 C-23.38050858 274.12197808 -24.76697647 274.17768899 -26.15258789 274.20532227 C-27.03342545 274.22526749 -27.914263 274.24521271 -28.8217926 274.26576233 C-29.3004351 274.27411858 -29.3004351 274.27411858 -31.72265625 274.31640625 C-32.21026176 274.3267968 -32.21026176 274.3267968 -34.67784119 274.37937927 C-37.8059863 274.44498412 -40.93421822 274.50381028 -44.0625 274.5625 C-46.1777435 274.60567483 -48.29297809 274.64928877 -50.40820312 274.69335938 C-55.60537587 274.80067655 -60.80263577 274.9024222 -66 275 C-66.31782929 268.83411175 -65.13180292 263.43818325 -63.65625 257.46875 C-63.53391998 256.96079643 -63.53391998 256.96079643 -62.91485596 254.39024353 C-62.11792847 251.09149018 -61.30928488 247.79574146 -60.5 244.5 C-59.94519481 242.21633484 -59.3908352 239.93256139 -58.83691406 237.64868164 C-55.59847879 224.33576669 -52.26639583 211.05006761 -48.79663086 197.7956543 C-46.27448691 188.14739052 -43.90199072 178.46845534 -41.57232666 168.7723999 C-39.60724395 160.59398276 -37.61617208 152.42328753 -35.56640625 144.265625 C-35.362397 143.4533696 -35.15838776 142.6411142 -34.94819641 141.804245 C-33.95886323 137.86894987 -32.96597824 133.9345841 -31.96899414 130.0012207 C-31.60688236 128.5646288 -31.24481942 127.12802458 -30.8828125 125.69140625 C-30.72498291 125.06850708 -30.72498291 125.06850708 -29.92626953 121.91625977 C-28.83522481 117.30333189 -27.92962942 112.64814708 -27 108 C-31.455 108.165 -31.455 108.165 -54 109 C-57.37194938 117.99186502 -57.37194938 117.99186502 -58.5078125 122.859375 C-58.76723633 123.95515869 -59.02666016 125.05094238 -59.29394531 126.17993164 C-59.56819336 127.3580542 -59.84244141 128.53617676 -60.125 129.75 C-60.7460582 132.36881765 -61.36828459 134.98733004 -61.9921875 137.60546875 C-62.15452881 138.28850571 -62.31687012 138.97154266 -62.48413086 139.67527771 C-64.34496766 147.48629943 -66.29564089 155.27445403 -68.25 163.0625 C-68.62863369 164.57404273 -69.00721365 166.08559891 -69.38574219 167.59716797 C-71.01930527 174.11733194 -72.65633457 180.636619 -74.29785156 187.15478516 C-75.65927444 192.56092845 -77.01812587 197.96771327 -78.375 203.375 C-78.60173401 204.27813934 -78.82846802 205.18127869 -79.06207275 206.11178589 C-83.36619702 223.27657546 -87.49630507 240.48141425 -91.56005859 257.70458984 C-91.78381165 258.64913025 -92.0075647 259.59367065 -92.23809814 260.5668335 C-92.6576881 262.33850175 -93.07523589 264.11065531 -93.49041748 265.88336182 C-94.887496 271.774992 -94.887496 271.774992 -96 274 C-110.6636707 275.15820248 -125.29806918 275.10562899 -140 275 C-141.3539811 270.63344092 -140.18159846 267.36996591 -138.875 263.125 C-136.93389049 256.56287405 -135.2647645 249.98897065 -133.8046875 243.3046875 C-130.87941525 230.19438876 -127.58442846 217.17832769 -124.29800415 204.15512085 C-122.51294 197.0805182 -120.73716649 190.00358561 -118.96484375 182.92578125 C-118.87773982 182.57797513 -118.87773982 182.57797513 -118.43694115 180.81786537 C-115.09543152 167.46498621 -111.89080396 154.08244796 -108.7590332 140.67895508 C-106.58431475 131.38221392 -104.2870573 122.13008043 -101.77734375 112.91796875 C-101 110 -101 110 -101 109 C-116.84 108.67 -132.68 108.34 -149 108 C-148.25196474 111.74017628 -147.64040825 114.00562075 -146.125 117.3125 C-137.6125566 138.40720463 -140.31933575 161.24806821 -145.5 182.75 C-145.71358154 183.64525391 -145.92716309 184.54050781 -146.1472168 185.46289062 C-146.25183228 185.87893555 -146.25183228 185.87893555 -146.78125 187.984375 C-146.96751953 188.73428711 -147.15378906 189.48419922 -147.34570312 190.25683594 C-148 192 -148 192 -150 193 C-152.92875409 193.12314482 -155.83517765 193.18582798 -158.76513672 193.20532227 C-159.67765512 193.21521903 -160.59017353 193.2251158 -161.53034401 193.23531246 C-164.58009832 193.26711306 -167.62986715 193.29181532 -170.6796875 193.31640625 C-172.82475132 193.33707323 -174.96981153 193.35811674 -177.11486816 193.3795166 C-182.85193004 193.43532583 -188.58903048 193.48465506 -194.32616425 193.53242874 C-197.85883557 193.56236303 -201.39148473 193.59417577 -204.9241333 193.62667847 C-237.94963981 193.93032536 -270.97300895 194.16613175 -304 194 C-303.55389614 196.3566786 -303.10109833 198.71175131 -302.64453125 201.06640625 C-302.52082153 201.72370728 -302.39711182 202.3810083 -302.26965332 203.05822754 C-299.95635076 214.89432203 -295.86953924 226.02542458 -285.8125 233.25 C-272.89685763 241.09316236 -255.70439907 244.08392024 -240.85546875 240.75390625 C-239.91316406 240.50511719 -238.97085938 240.25632812 -238 240 C-236.86175781 239.74089844 -235.72351562 239.48179687 -234.55078125 239.21484375 C-225.51559921 236.95849018 -217.43699009 233.51650604 -210.8203125 226.78125 C-209 225 -209 225 -207 225 C-207 224.34 -207 223.68 -207 223 C-206.34 223 -205.68 223 -205 223 C-204.731875 222.401875 -204.46375 221.80375 -204.1875 221.1875 C-202.96414758 218.93395607 -202.02039668 217.57141964 -200 216 C-196.18713672 214.90689244 -193.71784167 215.09069984 -189.9375 216.1875 C-183.3024304 217.99329922 -176.61200304 219.29916223 -169.85522461 220.5534668 C-169.02643799 220.71242432 -168.19765137 220.87138184 -167.34375 221.03515625 C-166.60318359 221.1731665 -165.86261719 221.31117676 -165.09960938 221.45336914 C-162.86876707 222.03416634 -161.02054643 222.90154192 -159 224 C-159.49638948 228.79241478 -161.77903504 232.03362372 -164.5625 235.8125 C-165.0172168 236.43415039 -165.47193359 237.05580078 -165.94042969 237.69628906 C-173.23575864 247.50018726 -181.93708604 254.23986223 -192 261 C-192.85722656 261.58007812 -193.71445313 262.16015625 -194.59765625 262.7578125 C-211.88388177 273.78174931 -231.85903372 277.67334953 -252 279 C-252.53431641 279.03673828 -252.53431641 279.03673828 -255.23828125 279.22265625 C-280.23696116 280.03590892 -305.31614959 272.3323296 -323.6875 255.30151367 C-340.6216183 239.05575204 -346.5669161 216.10306481 -347.33862305 193.31933594 C-347.87141059 159.34966049 -335.09266452 128.99176811 -311.9375 104.4375 C-304.97646257 97.69276599 -297.09595809 92.28976653 -289 87 C-288.39784668 86.60119629 -287.79569336 86.20239258 -287.17529297 85.79150391 C-264.61634011 71.07634339 -232.30588572 65.60392088 -206 71 C-189.8828994 74.63028942 -173.75841588 80.99246514 -162 93 C-162 93.66 -162 94.32 -162 95 C-161.34 95 -160.68 95 -160 95 C-158.5625 96.71484375 -158.5625 96.71484375 -157 98.9375 C-154.20708447 102.89645777 -154.20708447 102.89645777 -152 104 C-151.57638462 102.20447288 -151.15285951 100.40892442 -150.72973633 98.61328125 C-150.36668905 97.07282311 -150.00324163 95.53245923 -149.6394043 93.9921875 C-148.77733181 90.33550948 -147.92246975 86.67787937 -147.1015625 83.01171875 C-146.84117187 81.85285156 -146.58078125 80.69398438 -146.3125 79.5 C-146.08175781 78.4584375 -145.85101562 77.416875 -145.61328125 76.34375 C-145 74 -145 74 -144 73 C-142.34261557 72.90653085 -140.68125356 72.88255023 -139.02124023 72.88647461 C-137.96021591 72.88655014 -136.89919159 72.88662567 -135.80601501 72.88670349 C-134.651866 72.89186478 -133.49771698 72.89702606 -132.30859375 72.90234375 C-131.13361832 72.9037587 -129.95864288 72.90517365 -128.74806213 72.90663147 C-124.97784936 72.91225008 -121.20769496 72.92480574 -117.4375 72.9375 C-114.88867273 72.9425126 -112.33984453 72.94707592 -109.79101562 72.95117188 C-103.52732367 72.96222556 -97.26366601 72.97898179 -91 73 C-90.85884766 72.14881592 -90.71769531 71.29763184 -90.57226562 70.4206543 C-88.42587379 58.22603292 -85.45120817 46.27016823 -82.38427734 34.27807617 C-81.49259131 30.78346454 -80.6151282 27.28547008 -79.73828125 23.78710938 C-79.17012433 21.55186622 -78.60114405 19.31683214 -78.03125 17.08203125 C-77.77178589 16.0424678 -77.51232178 15.00290436 -77.24499512 13.93183899 C-74.54605204 3.48537679 -74.54605204 3.48537679 -72 1 C-68.92822192 0.31249026 -65.94303106 0.39536217 -62.80859375 0.4765625 C-61.9075441 0.48126556 -61.00649445 0.48596863 -60.07814026 0.49081421 C-57.19715286 0.51218316 -54.31799675 0.56881627 -51.4375 0.625 C-49.49285582 0.64150335 -47.54819208 0.65585239 -45.60351562 0.66796875 C-31.39221134 0.80389433 -31.39221134 0.80389433 -29 2 C-31.52393459 16.15876918 -35.17517524 30.05329817 -38.69586182 43.98944092 C-39.523203 47.26768405 -40.34640521 50.54696631 -41.16992188 53.82617188 C-42.77557461 60.21856349 -44.38792817 66.60921062 -46 73 C-36.43 73 -26.86 73 -17 73 C-16.34 69.535 -15.68 66.07 -15 62.5 C-11.93112814 46.84695636 -7.95034153 31.44795583 -4 16 C-2.68 10.72 -1.36 5.44 0 0 Z M96.3125 128.25 C89.6681334 136.21351137 83.96599337 144.98977239 81 155 C81.33 155.66 81.66 156.32 82 157 C91.73038294 157.0235776 101.46075548 157.04113897 111.19116116 157.05181217 C115.71347019 157.0569448 120.23575916 157.06385773 124.75805664 157.07543945 C147.86031668 157.13306985 170.91317137 156.88465591 194 156 C197.74484148 146.93560142 195.95285149 138.19410579 193 129 C188.63535065 119.06762487 181.65915174 112.20769757 171.625 108.125 C143.71022412 98.51817678 115.61854568 105.84879009 96.3125 128.25 Z M-280 126 C-295.45591038 143.91198602 -295.45591038 143.91198602 -296.58203125 154.18652344 C-296.71996094 155.4449707 -296.85789062 156.70341797 -297 158 C-282.43159066 158.07001905 -267.86320733 158.12275392 -253.29466438 158.15543652 C-246.53053291 158.17091863 -239.76650586 158.19203361 -233.00244141 158.22631836 C-226.47967797 158.25936433 -219.95698246 158.2768333 -213.43413925 158.28463173 C-210.94054324 158.29019207 -208.44695344 158.30104939 -205.95340347 158.31719017 C-202.47156988 158.33883991 -198.99019041 158.34197212 -195.50830078 158.34057617 C-194.46820862 158.351362 -193.42811646 158.36214783 -192.35650635 158.3732605 C-191.88393906 158.3711985 -191.88393906 158.3711985 -189.49246216 158.36076355 C-188.66837923 158.36352893 -187.8442963 158.36629431 -186.99524117 158.36914349 C-186.33681158 158.24732614 -185.678382 158.12550879 -185 158 C-181.22575196 152.33862794 -182.40513053 144.43026922 -183.53515625 137.9140625 C-186.0490527 128.10574521 -189.82800389 119.44936788 -198.625 113.9375 C-224.85254969 98.9060535 -258.66934405 104.83418684 -280 126 Z " fill="#A2A2A2" transform="translate(2991,538)"/>
<path d="M0 0 C0.928125 0.30808594 1.85625 0.61617187 2.8125 0.93359375 C22.72188919 8.11246005 40.28258101 26.17425377 49.3046875 45.00878906 C50.22379746 46.99735722 51.1182964 48.99459657 52 51 C52.48339844 52.093125 52.96679688 53.18625 53.46484375 54.3125 C59.17125004 68.18825997 61.56944912 82.57125336 62.78321075 97.44807816 C62.92558982 99.12408498 63.08099258 100.79904628 63.25061798 102.47251511 C64.11496149 111.47460731 64.16629784 120.44478609 64.18945312 129.47753906 C64.19741593 131.21468294 64.20580541 132.9518249 64.21458435 134.68896484 C64.2325647 138.42093585 64.24761213 142.15290282 64.26036072 145.88489532 C64.2808984 151.87053478 64.30853221 157.85612977 64.33703613 163.84173584 C64.39193595 175.56870663 64.43986904 187.29570082 64.48697662 199.02270508 C64.88479953 297.60634487 64.88479953 297.60634487 65.35157776 336.39617157 C65.38823472 339.44581252 65.42110858 342.49545232 65.45030212 345.54517365 C65.8217079 383.47945082 69.275052 416.64203342 96.828125 444.98828125 C113.96812412 461.79376366 137.82399977 469.95797579 161.46044922 470.00488281 C187.26045918 469.7269997 210.45156504 463.73938237 233.27685547 451.88232422 C238.52414896 449.19548394 242.99569962 447.03181429 248.9375 446.9375 C252 448 252 448 253.9375 449.9375 C255.49029449 454.41320177 255.98963398 458.33134505 255 463 C252.63472589 465.82679101 251.05564287 467.09443374 248 469 C246.96488281 469.67546875 245.92976563 470.3509375 244.86328125 471.046875 C235.02876863 477.29476342 224.58397338 482.17433811 214 487 C212.91074219 487.50660156 211.82148438 488.01320313 210.69921875 488.53515625 C208.14370949 489.71712446 205.5788126 490.86991079 203 492 C202.63455078 492.16113281 202.63455078 492.16113281 200.78515625 492.9765625 C158.1655852 510.89863853 112.19964843 511.87195506 68 500 C67.08621582 499.75733398 66.17243164 499.51466797 65.23095703 499.26464844 C42.17612742 493.0488646 19.79911742 482.88017915 1 468 C0.13632813 467.33871094 -0.72734375 466.67742187 -1.6171875 465.99609375 C-14.72966522 455.67714389 -25.46335908 444.32833501 -34 430 C-34.20044922 429.66838867 -34.20044922 429.66838867 -35.21484375 427.99023438 C-40.4308511 419.29966622 -44.76774916 410.64024463 -48 401 C-48.10554199 400.69344482 -48.10554199 400.69344482 -48.63964844 399.14208984 C-57.23536028 374.03024151 -58.26051656 348.15444955 -58.60522461 321.82983398 C-58.64267808 319.39151119 -58.68037151 316.95319207 -58.71828365 314.51487637 C-59.1312125 286.51883266 -59.22002599 258.51996992 -59.29708302 230.52140901 C-59.31852881 222.78530586 -59.34482346 215.04922089 -59.37124526 207.31313341 C-59.41823479 193.51939305 -59.46166418 179.72564408 -59.50268555 165.93188477 C-59.54233663 152.60147417 -59.58384355 139.27107133 -59.62768555 125.94067383 C-59.63040982 125.11216823 -59.63313409 124.28366263 -59.63594092 123.4300508 C-59.64962993 119.26995016 -59.66335025 115.10984962 -59.67708123 110.94974911 C-59.7603681 85.69800279 -59.84138064 60.44624964 -59.91801322 35.19448221 C-59.92399856 33.22758941 -59.93004035 31.26069679 -59.93608284 29.29380417 C-59.94712336 25.6916025 -59.95797697 22.08940031 -59.96876526 18.48719788 C-59.97197409 17.44658284 -59.97518292 16.4059678 -59.97848898 15.33381897 C-59.98409615 13.43130839 -59.98706042 11.52878733 -59.98680413 9.62626851 C-59.99556476 7.88271051 -60.02387489 6.13913566 -60.0722121 4.39622581 C-60.20941015 -1.68588478 -60.20941015 -1.68588478 -58 -5 C-55.48369386 -5.56151462 -53.17455317 -5.9327208 -50.625 -6.1875 C-50.26414307 -6.22697754 -50.26414307 -6.22697754 -48.43798828 -6.42675781 C-31.3951328 -8.17145075 -16.06583529 -5.56517812 0 0 Z " fill="#A2A2A2" transform="translate(2428,883)"/>
<path d="M0 0 C0.68157166 0.07841125 1.36314331 0.15682251 2.06536865 0.23760986 C15.73187979 1.84119223 28.96945329 4.83780119 41.9375 9.5 C42.76918701 9.79664551 43.60087402 10.09329102 44.45776367 10.39892578 C70.69737926 19.93834461 92.94365765 33.87400721 113.0625 53.25 C113.71476562 53.85070312 114.36703125 54.45140625 115.0390625 55.0703125 C146.61629836 84.91728886 154.84211344 130.11851508 156.13211918 171.48232698 C156.41649042 182.75136164 156.43279701 194.02564136 156.46720433 205.29761243 C156.48338022 209.94851767 156.51017445 214.59936547 156.53538513 219.25022888 C156.58241313 228.24863799 156.61924965 237.24705989 156.65217119 246.24553055 C156.67901018 253.51848379 156.71019772 260.79140748 156.74411011 268.06433105 C157.12083462 349.12608424 157.18294725 430.18756453 157.0625 511.25 C141.62645501 513.52666043 125.41873524 512.99156516 110.0625 510.25 C109.03511719 510.06695313 108.00773437 509.88390625 106.94921875 509.6953125 C94.54071129 507.03282481 82.9805345 501.08929903 73.0625 493.25 C72.36769531 492.70730469 71.67289063 492.16460938 70.95703125 491.60546875 C47.9195895 472.57841337 38.13995543 441.89010624 35.0625 413.25 C34.80425263 410.00327476 34.64586052 406.75810147 34.515625 403.50390625 C34.47570938 402.53284943 34.43579376 401.5617926 34.39466858 400.56130981 C33.81864033 385.19611329 33.69449585 369.81728901 33.53047562 354.44335556 C33.49961403 351.58930542 33.4668709 348.73528152 33.43380737 345.8812561 C33.13481455 319.66824907 33.03266457 293.45762629 33.06743407 267.24323845 C33.07031305 265.01910804 33.07284106 262.7949775 33.07526588 260.57084656 C33.08993447 247.30450492 33.10528979 234.03817188 33.15597534 220.77191162 C33.54713183 118.05689725 33.54713183 118.05689725 21.0625 89.25 C20.84271484 88.73759766 20.84271484 88.73759766 19.73046875 86.14453125 C8.94398648 64.08275332 -13.21365451 48.349951 -35.90625 40.5 C-42.13312938 38.48471152 -48.47743779 37.27842972 -54.9375 36.25 C-55.72125 36.10691406 -56.505 35.96382812 -57.3125 35.81640625 C-83.62524667 31.7797917 -113.46191073 42.82644518 -136.265625 55.03125 C-146.51322743 60.4897719 -146.51322743 60.4897719 -152.9375 59.25 C-156.18110509 57.22274682 -157.51705969 55.69510623 -158.58984375 52.0078125 C-159.07126388 47.77395327 -158.69515095 45.24322309 -156.078125 41.8125 C-150.32910241 36.39303921 -143.94160714 32.77712794 -136.9375 29.25 C-135.55233443 28.49649716 -134.16970648 27.73831862 -132.7890625 26.9765625 C-108.14853878 13.48281679 -82.60400035 4.85245379 -54.9375 0.25 C-53.66777344 0.023125 -52.39804688 -0.20375 -51.08984375 -0.4375 C-34.05590161 -3.15387615 -17.03519125 -2.01868105 0 0 Z " fill="#A2A2A2" transform="translate(2091.9375,871.75)"/>
<path d="M0 0 C2.40071165 2.15769482 4.69195489 4.39263525 6.984375 6.6640625 C8.37420842 7.81716605 9.76979952 8.96337575 11.171875 10.1015625 C15.6744553 14.05372717 18.80130618 18.62012268 21.984375 23.6640625 C22.62246094 24.62441406 23.26054687 25.58476563 23.91796875 26.57421875 C34.47017097 43.50299541 39.11984679 62.99169381 40.984375 82.6640625 C41.06819229 83.51871926 41.15200958 84.37337602 41.23836678 85.25393146 C41.97277342 93.28431846 42.19557416 101.27443498 42.2948761 109.33522034 C42.31518672 110.76541682 42.33576667 112.1956095 42.35659206 113.62579858 C42.41132925 117.48661373 42.45997449 121.34748172 42.50673746 125.20840089 C42.53669856 127.66134028 42.5680681 130.11425832 42.59975493 132.56717598 C43.05894707 168.40447904 43.14883243 204.24012562 43.15163207 240.07994151 C43.15213845 245.22324818 43.15445773 250.36655314 43.15712929 255.50985909 C43.16582174 272.59945685 43.17056254 289.68904855 43.16979881 306.77864855 C43.16975886 307.68289814 43.1697189 308.58714773 43.16967773 309.51879883 C43.16963685 310.42418967 43.16959597 311.32958051 43.16955385 312.26240743 C43.16914207 327.13193093 43.17887269 342.00142978 43.1928161 356.8709461 C43.20715208 372.28328418 43.21408904 387.69561012 43.21322232 403.10795504 C43.21289124 411.70584561 43.21560461 420.30370969 43.22640038 428.90159416 C43.23546433 436.16219422 43.23771161 443.42275554 43.23089095 450.68335878 C43.22761591 454.38038343 43.22760659 458.07733346 43.2362442 461.77435112 C43.24549007 465.77183864 43.23936647 469.76921563 43.23161316 473.76670837 C43.23675672 474.9409236 43.24190029 476.11513883 43.24719971 477.32493633 C43.24490032 477.85722324 43.24490032 477.85722324 43.23326397 480.55091763 C43.23348134 481.47263585 43.23369871 482.39435407 43.23392266 483.34400314 C42.984375 485.6640625 42.984375 485.6640625 40.984375 488.6640625 C39.20263672 489.16699219 39.20263672 489.16699219 37.0390625 489.3359375 C36.23178711 489.39974609 35.42451172 489.46355469 34.59277344 489.52929688 C5.61874777 491.02627012 -20.99226161 487.82827164 -44.015625 468.6640625 C-44.62019531 468.19355469 -45.22476563 467.72304687 -45.84765625 467.23828125 C-60.75671138 455.2908443 -69.73340248 436.62616269 -75.015625 418.6640625 C-75.21381836 418.00583496 -75.41201172 417.34760742 -75.61621094 416.66943359 C-80.824317 399.02071667 -81.35015185 380.78200199 -81.63232422 362.50341797 C-81.65078895 361.46492761 -81.66925369 360.42643726 -81.68827796 359.3564775 C-82.26195278 326.7916086 -82.16259686 294.21688793 -82.15092636 261.64820523 C-82.14861436 255.03912942 -82.14836541 248.43005617 -82.14944077 241.82098007 C-82.149594 240.86863447 -82.14974723 239.91628887 -82.14990511 238.93508431 C-82.15022491 236.99902194 -82.15054912 235.06295957 -82.1508777 233.1268972 C-82.1536996 215.16390121 -82.15049415 197.2009104 -82.14507733 179.23791526 C-82.14057865 163.84073654 -82.14141654 148.44356532 -82.14599609 133.04638672 C-82.1513429 115.06169063 -82.15346009 97.07699898 -82.15038383 79.0923022 C-82.15006533 77.17874138 -82.14975095 75.26518055 -82.14944077 73.35161972 C-82.14928649 72.4105498 -82.14913221 71.46947988 -82.14897326 70.49989269 C-82.14811092 63.87876368 -82.1495642 57.25763751 -82.15192032 50.63650894 C-82.15471816 42.60022246 -82.15397897 34.56394574 -82.14863957 26.52766038 C-82.14600755 22.43172289 -82.1449896 18.33580173 -82.14828873 14.23986435 C-82.15125977 10.49514906 -82.14964548 6.75046532 -82.14431117 3.00575291 C-82.14265883 1.00489545 -82.14593641 -0.99596418 -82.14936841 -2.99681938 C-82.14676066 -4.1792035 -82.14415291 -5.36158762 -82.14146614 -6.57980156 C-82.14130379 -7.60224492 -82.14114144 -8.62468828 -82.14097416 -9.67811477 C-82.0287089 -12.05851498 -81.69791386 -14.06193003 -81.015625 -16.3359375 C-52.766535 -20.88176807 -23.32167373 -18.06523432 0 0 Z " fill="#A2A2A2" transform="translate(2799.015625,894.3359375)"/>
<path d="M0 0 C0.99459229 0.00563965 1.98918457 0.0112793 3.01391602 0.01708984 C22.95536202 0.3434426 40.58542234 6.67729304 56.625 18.3125 C57.60339844 19.01246094 58.58179688 19.71242188 59.58984375 20.43359375 C82.21728083 37.7294608 92.81319239 66.39810687 96.8125 93.6875 C99.13328436 114.075183 98.76489018 134.5808201 98.74106562 155.06679785 C98.73670552 159.77748265 98.73821145 164.48816628 98.7389679 169.19885254 C98.73948964 177.33983885 98.73637957 185.48081709 98.73073006 193.62180138 C98.7225674 205.39197747 98.71999497 217.1621497 98.71874207 228.93232832 C98.716559 248.03341966 98.70991921 267.1345067 98.70043945 286.2355957 C98.691246 304.77921528 98.68417464 323.32283368 98.67993164 341.86645508 C98.67966892 343.01145663 98.67940619 344.15645818 98.67913551 345.33615675 C98.67783037 351.08088212 98.67656669 356.8256075 98.67532361 362.57033288 C98.66497423 410.15105822 98.64737629 457.7317789 98.625 505.3125 C92.19190152 507.20152435 86.30033817 507.9571588 79.625 508.3125 C78.78324219 508.36664062 77.94148438 508.42078125 77.07421875 508.4765625 C51.87856112 509.33862233 27.26171348 500.02108433 8.625 483.3125 C-15.45328519 460.02258976 -23.98756964 426.43676192 -24.64098167 393.84353828 C-24.78821012 384.50498238 -24.75467383 375.16511357 -24.72319686 365.82579482 C-24.71008457 360.93385708 -24.71463655 356.04192903 -24.71690369 351.14997864 C-24.71846695 342.70073633 -24.70915772 334.25156421 -24.69219017 325.80233955 C-24.66767494 313.58660769 -24.65998218 301.37090932 -24.6562262 289.15515553 C-24.64968122 269.32973621 -24.62977343 249.50435418 -24.60131836 229.67895508 C-24.57372697 210.43514185 -24.55251834 191.19133881 -24.53979492 171.94750977 C-24.53900675 170.75875417 -24.53821858 169.56999858 -24.53740653 168.3452201 C-24.53349105 162.38081625 -24.52970001 156.41641233 -24.52597082 150.45200837 C-24.49493583 101.07214649 -24.44215368 51.69232507 -24.375 2.3125 C-22.32920323 1.98176289 -20.28266775 1.65559343 -18.23583984 1.33129883 C-17.66604904 1.24023109 -17.66604904 1.24023109 -14.78256226 0.77937317 C-9.84380239 0.10270924 -4.97865846 -0.03020769 0 0 Z " fill="#A2A2A2" transform="translate(1801.375,876.6875)"/>
<path d="M0 0 C37.59865802 -0.91612468 71.32090196 10.53448313 99.08300781 36.36450195 C106.96746405 43.94408 112.7650436 52.76250608 118.40966797 62.05761719 C118.86043701 62.78811279 119.31120605 63.5186084 119.77563477 64.27124023 C120.18338135 64.96386963 120.59112793 65.65649902 121.01123047 66.37011719 C121.37812988 66.985 121.7450293 67.59988281 122.12304688 68.23339844 C122.98553177 70.61143797 122.78250157 71.74841327 121.78466797 74.05761719 C115.46519509 77.79253024 108.51407147 80.2256517 101.65966797 82.80761719 C100.60134766 83.21882812 99.54302734 83.63003906 98.45263672 84.05371094 C97.42525391 84.44171875 96.39787109 84.82972656 95.33935547 85.22949219 C94.87779053 85.40528809 94.87779053 85.40528809 92.54199219 86.29492188 C89.46172613 87.14694518 86.96578202 87.34050056 83.78466797 87.05761719 C81.64404297 84.92089844 81.64404297 84.92089844 79.78466797 82.05761719 C79.17107422 81.12304688 78.55748047 80.18847656 77.92529297 79.22558594 C77.30138672 78.24203125 76.67748047 77.25847656 76.03466797 76.24511719 C63.33896366 57.15488535 42.88232851 45.65797251 20.78466797 41.05761719 C20.07439453 40.90679688 19.36412109 40.75597656 18.63232422 40.60058594 C16.66750828 40.27813256 14.77535312 40.14085141 12.78466797 40.05761719 C11.67349609 40.00605469 10.56232422 39.95449219 9.41748047 39.90136719 C-19.98319731 39.20273722 -49.48347615 48.54336405 -71.01953125 68.97265625 C-72.42298221 70.32930976 -73.81928616 71.69334476 -75.21533203 73.05761719 C-75.62203125 73.43337891 -75.62203125 73.43337891 -77.68017578 75.33496094 C-83.61143422 80.94177447 -87.98585159 87.0976101 -92.21533203 94.05761719 C-92.5869043 94.66524902 -92.95847656 95.27288086 -93.34130859 95.89892578 C-110.05410755 123.49398804 -116.7224837 157.7289498 -109.31298828 189.53808594 C-102.2295316 212.25052177 -89.57127741 228.24174285 -68.46142578 239.53027344 C-54.561196 246.30430494 -39.94212102 248.31485088 -24.65283203 248.37011719 C-23.96336487 248.3727356 -23.27389771 248.375354 -22.5635376 248.37805176 C-10.42060395 248.38297975 1.01943603 247.13368763 12.78466797 244.05761719 C13.44644043 243.89213379 14.10821289 243.72665039 14.79003906 243.55615234 C29.41944704 239.83140559 29.41944704 239.83140559 33.78466797 235.05761719 C36.29453616 228.98184193 37.99789753 222.81984381 39.59716797 216.45214844 C39.85216064 215.45108566 40.10715332 214.45002289 40.36987305 213.41862488 C40.90640714 211.30883428 41.4407941 209.1984966 41.97314453 207.08764648 C42.77811173 203.89611136 43.5893682 200.70622962 44.40185547 197.51660156 C44.92566391 195.45354467 45.44911283 193.39039645 45.97216797 191.32714844 C46.2097583 190.39127396 46.44734863 189.45539948 46.69213867 188.49116516 C48.48779537 181.36455451 50.13113076 174.22294511 51.78466797 167.05761719 C20.10466797 167.05761719 -11.57533203 167.05761719 -44.21533203 167.05761719 C-43.09077742 155.8120711 -43.09077742 155.8120711 -41.84033203 151.44433594 C-41.57736328 150.50654297 -41.31439453 149.56875 -41.04345703 148.60253906 C-40.77017578 147.65958984 -40.49689453 146.71664062 -40.21533203 145.74511719 C-39.67223837 143.83276145 -39.13052335 141.92001354 -38.59033203 140.00683594 C-38.35056641 139.17498779 -38.11080078 138.34313965 -37.86376953 137.48608398 C-37.20639877 135.02416119 -36.68847724 132.56087894 -36.21533203 130.05761719 C-29.49121849 128.80456031 -22.84913967 128.96451233 -16.02807617 129.03588867 C-14.71032196 129.04549622 -13.39256775 129.05510376 -12.03488159 129.06500244 C-8.43825323 129.09134347 -4.84170999 129.12415065 -1.24514699 129.15815234 C2.51977136 129.19263484 6.28473504 129.22112407 10.04969788 129.2502594 C17.17165524 129.30627836 24.29355583 129.36765756 31.41545159 129.43098074 C39.52667182 129.50283798 47.63793736 129.56869197 55.74921215 129.6340512 C72.42775674 129.76857801 89.10622858 129.91061285 105.78466797 130.05761719 C105.62995106 131.6636484 105.47357022 133.26951938 105.31648254 134.87532043 C105.27302908 135.32246352 105.27302908 135.32246352 105.05312824 137.58527851 C104.76788524 140.21217481 104.3286131 142.74504713 103.73388672 145.31933594 C103.532229 146.20202148 103.33057129 147.08470703 103.12280273 147.99414062 C103.015448 148.44805176 103.015448 148.44805176 102.47216797 150.74511719 C102.35997925 151.22932129 102.35997925 151.22932129 101.79223633 153.6796875 C100.28201445 160.13260001 98.6072909 166.52851162 96.85888672 172.92089844 C95.4873866 178.07974032 94.33895062 183.28970241 93.15966797 188.49511719 C89.5155382 204.54041899 85.47790774 220.48751745 81.45077515 236.44013977 C80.07870579 241.87538567 78.73095391 247.31622908 77.40600586 252.76318359 C75.82838123 258.58892673 73.6351667 261.59746894 68.78466797 265.05761719 C65.57587904 266.81741886 62.28651266 268.38255113 58.97216797 269.93261719 C58.03727539 270.3717041 57.10238281 270.81079102 56.13916016 271.26318359 C37.89205698 279.72592448 19.85430927 285.01764099 -0.21533203 287.05761719 C-1.12895508 287.15848633 -2.04257813 287.25935547 -2.98388672 287.36328125 C-45.82990566 291.98001214 -85.64051102 283.90056563 -119.59033203 256.65136719 C-120.12658203 256.12542969 -120.66283203 255.59949219 -121.21533203 255.05761719 C-121.21533203 254.39761719 -121.21533203 253.73761719 -121.21533203 253.05761719 C-121.87533203 253.05761719 -122.53533203 253.05761719 -123.21533203 253.05761719 C-123.21533203 252.39761719 -123.21533203 251.73761719 -123.21533203 251.05761719 C-123.87533203 251.05761719 -124.53533203 251.05761719 -125.21533203 251.05761719 C-125.21533203 250.39761719 -125.21533203 249.73761719 -125.21533203 249.05761719 C-125.87533203 249.05761719 -126.53533203 249.05761719 -127.21533203 249.05761719 C-151.47614278 220.5956364 -159.73048072 187.21007596 -157.00439453 150.19335938 C-153.47531173 110.58475201 -136.2078473 75.00505595 -108.21533203 47.05761719 C-107.87373047 46.69861328 -107.87373047 46.69861328 -106.14501953 44.88183594 C-100.63802702 39.15498251 -94.78645927 34.50681792 -88.21533203 30.05761719 C-87.14283203 29.32542969 -86.07033203 28.59324219 -84.96533203 27.83886719 C-59.70396204 10.9131679 -30.5108164 0.79353677 0 0 Z " fill="#A2A2A2" transform="translate(2311.21533203125,529.9423828125)"/>
<path d="M0 0 C3.36252817 2.82709374 6.53694418 5.74840062 9.5625 8.9375 C10.09230469 9.42347656 10.62210938 9.90945313 11.16796875 10.41015625 C26.01030941 24.26956044 32.44695412 44.75392545 33.49023438 64.56298828 C34.07262041 82.0621145 28.19465612 98.12475328 21.42086792 113.95178223 C20.07202637 117.10414419 18.7415986 120.2641688 17.4103241 123.42398071 C16.74090123 125.01284539 16.07067009 126.60136977 15.39961243 128.18954468 C12.52731449 134.99372017 9.73669521 141.82749584 7 148.6875 C6.79995361 149.18866333 6.79995361 149.18866333 5.78759766 151.72485352 C3.29964426 157.9943483 0.92550126 164.29958512 -1.40161133 170.63012695 C-2.83183122 174.46977548 -4.42824104 178.17566936 -6.1875 181.875 C-9.98557889 189.91052422 -13.17735803 198.17851995 -16.453125 206.4375 C-19.64499458 214.48083573 -22.89170441 222.50167361 -26.14456177 230.52050781 C-27.09558794 232.86499291 -28.0457535 235.20982538 -28.99584961 237.5546875 C-34.28749882 250.6059924 -39.60871977 263.64664413 -45.05859375 276.6328125 C-46.16718651 279.28966654 -47.26029401 281.95163609 -48.34765625 284.6171875 C-49.04409953 286.30736226 -49.74071459 287.99746625 -50.4375 289.6875 C-50.75775146 290.4801123 -51.07800293 291.27272461 -51.40795898 292.08935547 C-56.23693959 303.73693959 -56.23693959 303.73693959 -60.4375 307.9375 C-66.52075612 309.19610472 -70.0864816 309.25513141 -75.4375 305.9375 C-77.36940864 301.43891273 -77.97303068 296.84942849 -78.515625 292.0234375 C-78.70501054 290.45581481 -78.89506058 288.88827229 -79.08569336 287.32080078 C-79.18332977 286.50387756 -79.28096619 285.68695435 -79.38156128 284.84527588 C-81.46308551 267.61295447 -84.3988899 250.83051892 -88.4375 233.9375 C-88.90384133 231.91410755 -89.36999086 229.89067088 -89.8359375 227.8671875 C-93.01764359 214.34771201 -97.07899197 201.17749152 -101.43917847 187.99630737 C-103.16522462 182.77767033 -104.8636193 177.55038024 -106.5546875 172.3203125 C-111.19396845 157.98178594 -115.84353114 143.6485787 -120.65625 129.3671875 C-124.60452319 117.65050057 -128.53323022 105.96346183 -131.4375 93.9375 C-131.59831055 93.2878125 -131.75912109 92.638125 -131.92480469 91.96875 C-137.3721401 69.32580525 -135.57263067 44.90792441 -123.43261719 24.65698242 C-110.62325095 4.27869905 -91.96677452 -9.27470565 -68.4375 -15.0625 C-45.19656751 -20.14010697 -18.86868917 -14.84336881 0 0 Z " fill="#A2A2A2" transform="translate(1201.4375,525.0625)"/>
<path d="M0 0 C0.90726334 0.00202423 1.81452667 0.00404846 2.74928284 0.00613403 C3.67535843 0.00517731 4.60143402 0.00422058 5.55557251 0.00323486 C7.51849943 0.00255291 9.48142858 0.00440822 11.4443512 0.00857544 C14.45555171 0.01391746 17.46660265 0.00863406 20.47779846 0.00222778 C22.38079358 0.00288868 24.28378861 0.00417008 26.18678284 0.00613403 C26.63940239 0.00512192 26.63940239 0.00512192 28.92993164 0 C29.76742447 0.00315216 30.6049173 0.00630432 31.4677887 0.009552 C32.20645676 0.0103476 32.94512482 0.01114319 33.70617676 0.01196289 C35.53443909 0.13894653 35.53443909 0.13894653 37.53443909 1.13894653 C37.30152161 2.05901489 37.06860413 2.97908325 36.82862854 3.92703247 C34.24820214 14.1618691 31.78747429 24.42265986 29.35929871 34.69454956 C25.46646628 51.15124934 21.48094239 67.57947601 17.33473206 83.97439575 C7.84852895 121.48512322 -1.30707469 159.07946305 -10.34056091 196.70144653 C-14.31214173 213.23967362 -18.31585688 229.76631539 -22.48460388 246.25613403 C-24.46996191 254.11050513 -26.44422752 261.9676631 -28.41520691 269.82565308 C-29.12808219 272.66447586 -29.84385982 275.5025554 -30.55979919 278.34060669 C-31.01181292 280.14048538 -31.46347863 281.94045151 -31.91477966 283.74050903 C-32.02440033 284.1755928 -32.02440033 284.1755928 -32.57914734 286.37738037 C-33.66107997 290.71827543 -34.67706617 295.06104703 -35.58128357 299.44265747 C-35.756017 300.28041718 -35.93075043 301.11817688 -36.11077881 301.98132324 C-36.4360168 303.56484455 -36.74975828 305.15078455 -37.05020142 306.73919678 C-37.48435974 308.85525513 -37.48435974 308.85525513 -38.46556091 312.13894653 C-41.22141443 313.05756437 -42.82516782 313.26098976 -45.66160583 313.25247192 C-46.50225082 313.25239639 -47.34289581 313.25232086 -48.20901489 313.25224304 C-49.11222977 313.24708176 -50.01544464 313.24192047 -50.94602966 313.23660278 C-51.87401871 313.23518784 -52.80200775 313.23377289 -53.75811768 313.23231506 C-56.72313149 313.2267159 -59.6880699 313.21416358 -62.65306091 313.20144653 C-64.66282545 313.19643142 -66.67259117 313.19186854 -68.68235779 313.18777466 C-73.61012123 313.17674675 -78.53782829 313.1594827 -83.46556091 313.13894653 C-82.68710325 306.4915638 -81.1113226 300.07059358 -79.55149841 293.56863403 C-79.40513443 292.95319229 -79.40513443 292.95319229 -78.66444397 289.83868408 C-77.88357794 286.55807447 -77.09996578 283.27814551 -76.31504822 279.99850464 C-75.54373665 276.77246969 -74.77637932 273.54549443 -74.00852966 270.31863403 C-72.16798695 262.59035782 -70.31825769 254.86431702 -68.46556091 247.13894653 C-68.16841187 245.89882813 -67.87126282 244.65870972 -67.56510925 243.38101196 C-63.42331023 226.10811495 -59.1741697 208.86465315 -54.84056091 191.63894653 C-51.6763819 179.0605887 -48.5231621 166.48222724 -45.53909302 153.85978699 C-38.92869148 125.94208733 -32.01712946 98.09417263 -25.14402771 70.24026489 C-24.22647448 66.5212407 -23.31054879 62.8018212 -22.39598083 59.08206177 C-13.59451423 23.28890891 -13.59451423 23.28890891 -9.88352966 9.60379028 C-9.64523941 8.72187515 -9.40694916 7.83996002 -9.16143799 6.93132019 C-7.29286404 0.17670137 -7.06479624 0.02669098 0 0 Z " fill="#A2A2A2" transform="translate(2635.465560913086,500.8610534667969)"/>
<path d="M0 0 C14.19 0 28.38 0 43 0 C43.99249495 4.96247474 43.81753769 6.85598259 42.63232422 11.60009766 C42.47469101 12.2433046 42.3170578 12.88651154 42.15464783 13.54920959 C41.63135358 15.67345507 41.09316309 17.79361914 40.5546875 19.9140625 C40.18321102 21.40817759 39.81263128 22.9025159 39.44290161 24.39706421 C38.46450256 28.3409717 37.47328325 32.28155049 36.47955322 36.22161865 C35.48854914 40.16132262 34.51069805 44.10428567 33.53125 48.046875 C30.26552923 61.16992252 26.9631748 74.2817013 23.48451233 87.35020447 C22.13345134 92.4391871 20.91826885 97.54055661 19.8125 102.6875 C17.5199653 113.02669852 14.95836168 123.29315349 12.375 133.5625 C7.55212264 152.74310211 2.83957665 171.94918127 -1.84326172 191.16439819 C-3.57012013 198.24690948 -5.30665051 205.32701209 -7.046875 212.40625 C-12.13436929 233.11013805 -17.19110161 253.81915409 -22.05908203 274.57592773 C-24.01838316 282.92165092 -26.04238415 291.24711146 -28.14355469 299.55834961 C-29.17203082 303.69131085 -30.10766373 307.83576407 -31 312 C-33.81193801 312.79821816 -36.29823285 313.12253632 -39.21777344 313.11352539 C-40.03832214 313.11344986 -40.85887085 313.11337433 -41.70428467 313.11329651 C-42.58046448 313.10813522 -43.45664429 313.10297394 -44.359375 313.09765625 C-44.81156403 313.09694878 -44.81156403 313.09694878 -47.09991455 313.09336853 C-49.98331027 313.08777911 -52.86662782 313.07522853 -55.75 313.0625 C-57.70703013 313.05748363 -59.66406147 313.05292096 -61.62109375 313.04882812 C-66.41409253 313.03781313 -71.20703302 313.02055574 -76 313 C-75.36791909 305.43457801 -73.762496 298.31437966 -71.92578125 290.95703125 C-71.45110397 289.02410444 -70.976438 287.09117479 -70.50231266 285.15811253 C-70.00486477 283.13284428 -69.50503723 281.10817358 -69.00494385 279.08355713 C-67.53119747 273.10731137 -66.09255422 267.12260419 -64.65067291 261.13860893 C-63.83690901 257.76373443 -63.02029649 254.38954992 -62.20361328 251.01538086 C-62.03956245 250.33757474 -61.87551163 249.65976862 -61.70648956 248.96142292 C-61.20025109 246.87009314 -60.69389978 244.77879072 -60.1875 242.6875 C-60.01427971 241.97210682 -59.84105942 241.25671364 -59.66259003 240.51964188 C-55.37413097 222.8111738 -51.06797666 205.10797923 -46.625 187.4375 C-46.42699799 186.64989288 -46.22899597 185.86228577 -46.0249939 185.05081177 C-45.82813995 184.26777679 -45.63128601 183.48474182 -45.4284668 182.67797852 C-42.7454195 172.00328369 -40.10446587 161.31914176 -37.5 150.625 C-37.30509979 149.82518707 -37.11019958 149.02537415 -36.90939331 148.20132446 C-34.60302299 138.73372257 -32.30537749 129.26401191 -30.01318359 119.79296875 C-27.74058076 110.40300889 -25.46565985 101.01361328 -23.1875 91.625 C-22.99378437 90.8266637 -22.80006874 90.02832741 -22.60048294 89.2057991 C-17.32305498 67.46288109 -11.97620539 45.74055205 -6.4375 24.0625 C-6.16183197 22.9829303 -5.88616394 21.9033606 -5.60214233 20.79107666 C-4.83968708 17.80940259 -4.07496072 14.82832708 -3.30859375 11.84765625 C-3.08657288 10.98264999 -2.864552 10.11764374 -2.63580322 9.22642517 C-1.83272809 6.11830746 -1.01549789 3.04649366 0 0 Z " fill="#A2A2A2" transform="translate(2555,501)"/>
<path d="M0 0 C0.79719955 0.00222061 1.59439911 0.00444122 2.41575623 0.00672913 C3.31661453 0.00680466 4.21747284 0.00688019 5.14562988 0.00695801 C6.12478867 0.01211929 7.10394745 0.01728058 8.11277771 0.02259827 C9.11018478 0.02401321 10.10759186 0.02542816 11.13522339 0.02688599 C14.3348027 0.03250337 17.53431315 0.04505881 20.73387146 0.05775452 C22.89728191 0.06276728 25.06069345 0.06733057 27.22410583 0.07142639 C32.53988471 0.08247845 37.85562317 0.09923348 43.17137146 0.12025452 C42.40650448 5.22107311 41.24453633 10.17268514 40.01121521 15.17494202 C39.79025177 16.07811661 39.56928833 16.9812912 39.34162903 17.91183472 C38.5997811 20.9402367 37.85441365 23.96776004 37.10887146 26.99525452 C36.57326856 29.17729229 36.03770648 31.35934008 35.50218201 33.54139709 C31.54230104 49.65293421 27.51579121 65.74756076 23.4790802 81.83998108 C17.35386794 106.25977061 11.30960997 130.69799061 5.36365891 155.16209793 C4.80058884 157.47790913 4.23675628 159.79353353 3.67274475 162.1091156 C2.78548021 165.75278977 1.90053571 169.3970198 1.01746178 173.04171181 C0.53994753 175.01102642 0.0606859 176.97991709 -0.41864014 178.9487915 C-1.8862958 185.02184325 -3.2672042 191.06980202 -4.31364441 197.23100281 C-4.82862854 199.12025452 -4.82862854 199.12025452 -6.82862854 201.12025452 C-8.73954773 201.36076355 -8.73954773 201.36076355 -11.09474182 201.3473053 C-11.97550385 201.34715424 -12.85626587 201.34700317 -13.76371765 201.34684753 C-14.71584137 201.33652496 -15.66796509 201.32620239 -16.64894104 201.31556702 C-17.62273712 201.31273712 -18.5965332 201.30990723 -19.59983826 201.30699158 C-22.71789203 201.29577365 -25.83566122 201.27066621 -28.95362854 201.24525452 C-31.06430148 201.2352268 -33.17497892 201.22610059 -35.28565979 201.21791077 C-40.46674689 201.1958291 -45.64766739 201.16233581 -50.82862854 201.12025452 C-49.73447719 194.02214446 -48.44796656 187.09953444 -46.51612854 180.18275452 C-44.26033667 171.8561299 -42.20866565 163.49427396 -40.23487854 155.09681702 C-39.766348 153.10457789 -39.29756155 151.11239895 -38.82862854 149.12025452 C-38.67710327 148.47519958 -38.525578 147.83014465 -38.36946106 147.1655426 C-34.49886632 130.71330228 -30.44080683 114.3075766 -26.38502502 97.90028381 C-24.38202372 89.79712444 -22.38283488 81.69302377 -20.38331604 73.58900452 C-20.18601143 72.78942825 -19.98870682 71.98985199 -19.78542328 71.16604614 C-16.51903802 57.92858788 -13.25999043 44.68936192 -10.01985168 31.44544983 C-9.56443108 29.58403622 -9.10866958 27.72270598 -8.65254211 25.86146545 C-8.03313421 23.33339328 -7.4150198 20.8050088 -6.79737854 18.27650452 C-6.71081497 17.92348267 -6.71081497 17.92348267 -6.27275085 16.13697815 C-5.20101975 11.73964943 -4.2176322 7.33104006 -3.29457092 2.8999176 C-2.67379318 0.52886214 -2.47294928 0.16262642 0 0 Z " fill="#A2A2A2" transform="translate(2456.828628540039,612.8797454833984)"/>
<path d="M0 0 C1.47941124 2.95882248 0.54702562 4.93805595 -0.14453125 8.14453125 C-0.40943359 9.37880859 -0.67433594 10.61308594 -0.94726562 11.88476562 C-1.08946533 12.52969971 -1.23166504 13.17463379 -1.37817383 13.83911133 C-1.80811742 15.79258747 -2.2254159 17.74883269 -2.64257812 19.70507812 C-5.74679376 34.00531371 -5.74679376 34.00531371 -8.98828125 36.578125 C-13.2859499 38.60711513 -17.7059589 40.17685299 -22.1875 41.75 C-30.29181601 44.63153458 -38.32866511 47.6247619 -46.27612305 50.91699219 C-49.97931968 52.40612677 -52.990687 53.3751404 -57 53 C-55.10254987 44.19243296 -52.87632778 35.47457172 -50.65429688 26.74414062 C-48.80333188 19.40853748 -47.1566742 12.08563803 -45.72631836 4.65698242 C-45.60647583 4.21858032 -45.60647583 4.21858032 -45 2 C-42.65761932 0.82880966 -41.08951855 0.79958351 -38.4765625 0.68359375 C-37.54658447 0.64161865 -36.61660645 0.59964355 -35.65844727 0.55639648 C-34.65740967 0.51716064 -33.65637207 0.4779248 -32.625 0.4375 C-32.1151355 0.41627075 -32.1151355 0.41627075 -29.53491211 0.30883789 C-19.68785353 -0.06974864 -9.85247351 -0.09712186 0 0 Z " fill="#A2A2A2" transform="translate(2516,540)"/>
</svg>
